<svg width="35" height="34" viewBox="0 0 35 34" fill="none" xmlns="http://www.w3.org/2000/svg">
<path d="M33.9701 17C33.9701 26.1165 26.6403 33.5 17.6071 33.5C8.5739 33.5 1.24414 26.1165 1.24414 17C1.24414 7.88348 8.5739 0.5 17.6071 0.5C26.6403 0.5 33.9701 7.88348 33.9701 17Z" stroke="white"/>
<path d="M15.7779 24V17.7383H13.7441V15.25H15.7779V13.2895C15.7779 11.1594 17.04 10 18.8828 10C19.7657 10 20.5241 10.0684 20.7441 10.0984V12.3242H19.4661C18.4638 12.3242 18.2703 12.8164 18.2703 13.5355V15.25H20.532L20.2218 17.7383H18.2703V24" fill="white"/>
</svg>
