<svg xmlns="http://www.w3.org/2000/svg" viewBox="0 0 248.8 230.69"><defs><style>.cls-1{fill:#3a2a88;}.cls-2{fill:#9541e5;}.cls-3,.cls-5,.cls-6{fill:none;stroke-linecap:round;stroke-linejoin:round;}.cls-3,.cls-5{stroke:#3a2a88;}.cls-3{stroke-width:3.22px;}.cls-4{fill:#feb402;}.cls-5,.cls-6{stroke-width:3.87px;}.cls-6{stroke:#fff;}</style></defs><title>icon-landing-mkt-btc-color</title><g id="Capa_2" data-name="Capa 2"><g id="Capa_1-2" data-name="Capa 1"><path class="cls-1" d="M47,3.22a5.9,5.9,0,1,1-5.9,5.9A5.9,5.9,0,0,1,47,3.22M47,0a9.12,9.12,0,1,0,9.12,9.12A9.13,9.13,0,0,0,47,0Z"/><path class="cls-2" d="M87.87,96a1.24,1.24,0,1,0,1.24,1.24A1.24,1.24,0,0,0,87.87,96Zm0-8.27A1.24,1.24,0,1,0,89.11,89,1.24,1.24,0,0,0,87.87,87.74Zm0,24.81a1.24,1.24,0,1,0,1.24,1.24A1.25,1.25,0,0,0,87.87,112.55Zm0,8.27a1.24,1.24,0,1,0,1.24,1.24A1.25,1.25,0,0,0,87.87,120.82Zm0-41.35a1.24,1.24,0,1,0,1.24,1.24A1.24,1.24,0,0,0,87.87,79.47Zm0,24.81a1.24,1.24,0,1,0,1.24,1.24A1.24,1.24,0,0,0,87.87,104.28ZM83.73,207.83A1.24,1.24,0,1,0,85,209.07,1.24,1.24,0,0,0,83.73,207.83Zm0,8.27A1.24,1.24,0,1,0,85,217.34,1.24,1.24,0,0,0,83.73,216.1Zm0-16.54A1.24,1.24,0,1,0,85,200.8,1.24,1.24,0,0,0,83.73,199.56ZM87.87,71.2a1.24,1.24,0,1,0,1.24,1.24A1.24,1.24,0,0,0,87.87,71.2ZM83.73,191.29A1.24,1.24,0,1,0,85,192.53,1.23,1.23,0,0,0,83.73,191.29ZM87.87,62.93a1.24,1.24,0,1,0,1.24,1.24A1.24,1.24,0,0,0,87.87,62.93Zm0,66.16a1.24,1.24,0,1,0,1.24,1.24A1.25,1.25,0,0,0,87.87,129.09Zm0,16.54a1.24,1.24,0,1,0,1.24,1.24A1.25,1.25,0,0,0,87.87,145.63Zm0,74.61a1.24,1.24,0,1,0,1.24,1.24A1.24,1.24,0,0,0,87.87,220.24Zm12.4-20.68a1.24,1.24,0,0,0,0,2.48,1.24,1.24,0,0,0,0-2.48Zm-12.4-4.13a1.24,1.24,0,1,0,1.24,1.24A1.24,1.24,0,0,0,87.87,195.43Zm0,8.27a1.24,1.24,0,1,0,1.24,1.24A1.24,1.24,0,0,0,87.87,203.7ZM92,67.06a1.24,1.24,0,1,0,1.24,1.24A1.24,1.24,0,0,0,92,67.06Zm0-8.27A1.24,1.24,0,1,0,93.24,60,1.24,1.24,0,0,0,92,58.79Zm-4.13,78.57a1.24,1.24,0,1,0,1.24,1.24A1.25,1.25,0,0,0,87.87,137.36Zm0,16.54a1.24,1.24,0,1,0,1.24,1.24A1.25,1.25,0,0,0,87.87,153.9ZM83.73,183a1.24,1.24,0,1,0,0,2.48,1.24,1.24,0,1,0,0-2.48Zm4.14-20.68a1.24,1.24,0,1,0,1.24,1.24A1.25,1.25,0,0,0,87.87,162.34Zm0,8.27a1.24,1.24,0,1,0,1.24,1.24A1.25,1.25,0,0,0,87.87,170.61Zm0,16.54a1.24,1.24,0,1,0,1.24,1.24A1.25,1.25,0,0,0,87.87,187.15Zm0-8.27a1.24,1.24,0,1,0,1.24,1.24A1.25,1.25,0,0,0,87.87,178.88ZM92,75.33a1.24,1.24,0,1,0,1.24,1.24A1.24,1.24,0,0,0,92,75.33ZM79.59,187.15a1.24,1.24,0,1,0,0,2.48,1.24,1.24,0,1,0,0-2.48Zm0-8.27a1.24,1.24,0,0,0,0,2.48,1.24,1.24,0,0,0,0-2.48Zm0,16.55a1.24,1.24,0,1,0,1.24,1.24A1.24,1.24,0,0,0,79.59,195.43Zm0,16.54a1.24,1.24,0,1,0,1.24,1.24A1.24,1.24,0,0,0,79.59,212Zm4.14-37.22A1.23,1.23,0,0,0,82.49,176a1.12,1.12,0,0,0,.1.48,1.24,1.24,0,0,0,2.28,0A1.12,1.12,0,0,0,85,176,1.24,1.24,0,0,0,83.73,174.75ZM79.59,203.7a1.24,1.24,0,1,0,1.24,1.24A1.24,1.24,0,0,0,79.59,203.7Zm0-82.88a1.24,1.24,0,0,0,0,2.48,1.24,1.24,0,0,0,0-2.48Zm0,16.54a1.24,1.24,0,0,0,0,2.48,1.24,1.24,0,1,0,0-2.48Zm0-8.27a1.24,1.24,0,1,0,0,2.48,1.24,1.24,0,0,0,0-2.48Zm4.14-70.3A1.24,1.24,0,1,0,85,60,1.24,1.24,0,0,0,83.73,58.79ZM79.59,162.34a1.24,1.24,0,1,0,0,2.48,1.24,1.24,0,0,0,0-2.48Zm0-16.71a1.24,1.24,0,0,0,0,2.48,1.24,1.24,0,0,0,0-2.48Zm0,8.27a1.24,1.24,0,1,0,0,2.48,1.24,1.24,0,1,0,0-2.48Zm0,16.71a1.24,1.24,0,1,0,0,2.48,1.24,1.24,0,1,0,0-2.48Zm4.14-29.11a1.23,1.23,0,0,0-1.24,1.24,2.11,2.11,0,0,0,0,.25A1.25,1.25,0,0,0,85,143a2.11,2.11,0,0,0,0-.25A1.24,1.24,0,0,0,83.73,141.5Zm0-8.27a1.24,1.24,0,1,0,0,2.48,1.24,1.24,0,0,0,0-2.48Zm0-66.17A1.24,1.24,0,1,0,85,68.3,1.24,1.24,0,0,0,83.73,67.06Zm0,99.42a1.24,1.24,0,1,0,0,2.48,1.24,1.24,0,0,0,0-2.48Zm0-8.44a1.24,1.24,0,1,0,0,2.48,1.24,1.24,0,0,0,0-2.48Zm0-33.08a1.24,1.24,0,0,0,0,2.48,1.24,1.24,0,0,0,0-2.48Zm0,24.81a1.24,1.24,0,1,0,0,2.48,1.24,1.24,0,1,0,0-2.48Zm0-66.17A1.24,1.24,0,1,0,85,84.84,1.24,1.24,0,0,0,83.73,83.6Zm-4.14,29a1.24,1.24,0,0,0,0,2.48,1.24,1.24,0,0,0,0-2.48Zm4.14-37.22A1.24,1.24,0,1,0,85,76.57,1.24,1.24,0,0,0,83.73,75.33Zm0,41.36a1.24,1.24,0,0,0,0,2.48,1.24,1.24,0,0,0,0-2.48Zm0-8.28A1.25,1.25,0,1,0,85,109.65,1.24,1.24,0,0,0,83.73,108.41Zm0-8.27A1.24,1.24,0,1,0,85,101.38,1.24,1.24,0,0,0,83.73,100.14Zm0-8.27A1.24,1.24,0,1,0,85,93.11,1.24,1.24,0,0,0,83.73,91.87ZM96.14,212a1.24,1.24,0,1,0,1.24,1.24A1.24,1.24,0,0,0,96.14,212Zm4.13-153.18a1.24,1.24,0,1,0,0,2.48,1.24,1.24,0,1,0,0-2.48ZM96.14,203.7a1.24,1.24,0,1,0,1.24,1.24A1.24,1.24,0,0,0,96.14,203.7Zm0,16.54a1.24,1.24,0,1,0,1.24,1.24A1.24,1.24,0,0,0,96.14,220.24Zm4.13-153.18a1.24,1.24,0,1,0,0,2.48,1.24,1.24,0,1,0,0-2.48Zm0,16.54a1.24,1.24,0,1,0,0,2.48,1.24,1.24,0,1,0,0-2.48Zm0-8.27a1.24,1.24,0,1,0,0,2.48,1.24,1.24,0,1,0,0-2.48Zm-4.13,87a1.24,1.24,0,1,0,1.24,1.24A1.25,1.25,0,0,0,96.14,162.34Zm0-8.44a1.24,1.24,0,1,0,1.24,1.24A1.25,1.25,0,0,0,96.14,153.9Zm0,16.71a1.24,1.24,0,1,0,1.24,1.24A1.25,1.25,0,0,0,96.14,170.61Zm0,24.82a1.24,1.24,0,1,0,1.24,1.24A1.24,1.24,0,0,0,96.14,195.43Zm0-49.8a1.24,1.24,0,1,0,1.24,1.24A1.25,1.25,0,0,0,96.14,145.63ZM92,83.6a1.24,1.24,0,1,0,1.24,1.24A1.24,1.24,0,0,0,92,83.6Zm4.14,103.55a1.24,1.24,0,1,0,1.24,1.24A1.25,1.25,0,0,0,96.14,187.15Zm4.13-20.67a1.24,1.24,0,1,0,1.24,1.24A1.24,1.24,0,0,0,100.27,166.48Zm0,8.27A1.24,1.24,0,0,0,99,176a1.12,1.12,0,0,0,.1.48,1.24,1.24,0,0,0,2.28,0,1.12,1.12,0,0,0,.1-.48A1.23,1.23,0,0,0,100.27,174.75Zm0-82.88a1.24,1.24,0,0,0,0,2.48,1.24,1.24,0,1,0,0-2.48Zm0,57.9a1.24,1.24,0,1,0,1.24,1.24A1.24,1.24,0,0,0,100.27,149.77Zm0,33.25a1.24,1.24,0,1,0,1.24,1.24A1.24,1.24,0,0,0,100.27,183Zm0,8.27a1.24,1.24,0,1,0,1.24,1.24A1.24,1.24,0,0,0,100.27,191.29Zm0-33.25a1.24,1.24,0,1,0,1.24,1.24A1.24,1.24,0,0,0,100.27,158Zm0-16.54A1.24,1.24,0,0,0,99,142.74a1.07,1.07,0,0,0,0,.25,1.23,1.23,0,0,0,1.21,1,1.25,1.25,0,0,0,1.22-1,2.11,2.11,0,0,0,0-.25A1.23,1.23,0,0,0,100.27,141.5Zm0-24.81a1.24,1.24,0,1,0,1.24,1.24A1.24,1.24,0,0,0,100.27,116.69Zm0-16.55a1.24,1.24,0,1,0,0,2.48,1.24,1.24,0,1,0,0-2.48Zm0,8.27a1.25,1.25,0,1,0,1.24,1.24A1.25,1.25,0,0,0,100.27,108.41Zm0,24.82a1.24,1.24,0,1,0,1.24,1.24A1.24,1.24,0,0,0,100.27,133.23Zm0-8.27a1.24,1.24,0,1,0,1.24,1.24A1.24,1.24,0,0,0,100.27,125Zm-4.13,53.92a1.24,1.24,0,1,0,1.24,1.24A1.25,1.25,0,0,0,96.14,178.88Zm0-41.52a1.24,1.24,0,1,0,1.24,1.24A1.25,1.25,0,0,0,96.14,137.36ZM92,158a1.24,1.24,0,1,0,0,2.48A1.24,1.24,0,0,0,92,158Zm0-8.27a1.24,1.24,0,1,0,0,2.48,1.24,1.24,0,1,0,0-2.48Zm0,16.71A1.24,1.24,0,1,0,92,169a1.24,1.24,0,0,0,0-2.48ZM92,183a1.24,1.24,0,1,0,0,2.48A1.24,1.24,0,1,0,92,183Zm0-8.27A1.23,1.23,0,0,0,90.76,176a1.12,1.12,0,0,0,.1.48,1.24,1.24,0,0,0,2.28,0,1.12,1.12,0,0,0,.1-.48A1.24,1.24,0,0,0,92,174.75Zm0-66.34a1.25,1.25,0,1,0,1.24,1.24A1.24,1.24,0,0,0,92,108.41Zm0,82.88a1.24,1.24,0,1,0,1.24,1.24A1.23,1.23,0,0,0,92,191.29Zm0-91.15a1.24,1.24,0,1,0,1.24,1.24A1.24,1.24,0,0,0,92,100.14Zm0-8.27a1.24,1.24,0,1,0,1.24,1.24A1.24,1.24,0,0,0,92,91.87Zm0,24.82a1.24,1.24,0,1,0,0,2.48,1.24,1.24,0,0,0,0-2.48Zm0,16.54a1.24,1.24,0,1,0,0,2.48,1.24,1.24,0,0,0,0-2.48ZM92,125a1.24,1.24,0,0,0,0,2.48A1.24,1.24,0,0,0,92,125Zm0,16.54a1.23,1.23,0,0,0-1.24,1.24,2.11,2.11,0,0,0,0,.25,1.25,1.25,0,0,0,2.44,0,2.11,2.11,0,0,0,0-.25A1.24,1.24,0,0,0,92,141.5Zm4.14-37.22a1.24,1.24,0,1,0,1.24,1.24A1.24,1.24,0,0,0,96.14,104.28Zm0-8.27a1.24,1.24,0,1,0,1.24,1.24A1.24,1.24,0,0,0,96.14,96Zm0,16.54a1.24,1.24,0,1,0,1.24,1.24A1.25,1.25,0,0,0,96.14,112.55Zm0,16.54a1.24,1.24,0,1,0,1.24,1.24A1.25,1.25,0,0,0,96.14,129.09ZM92,199.56a1.24,1.24,0,1,0,1.24,1.24A1.24,1.24,0,0,0,92,199.56Zm4.14-78.74a1.24,1.24,0,1,0,1.24,1.24A1.25,1.25,0,0,0,96.14,120.82Zm0-33.08A1.24,1.24,0,1,0,97.38,89,1.24,1.24,0,0,0,96.14,87.74ZM92,207.83a1.24,1.24,0,1,0,1.24,1.24A1.24,1.24,0,0,0,92,207.83Zm0,8.27a1.24,1.24,0,1,0,1.24,1.24A1.24,1.24,0,0,0,92,216.1ZM96.14,71.2a1.24,1.24,0,1,0,1.24,1.24A1.24,1.24,0,0,0,96.14,71.2Zm0,8.27a1.24,1.24,0,1,0,1.24,1.24A1.24,1.24,0,0,0,96.14,79.47Zm0-16.54a1.24,1.24,0,1,0,1.24,1.24A1.24,1.24,0,0,0,96.14,62.93ZM87.87,212a1.24,1.24,0,1,0,1.24,1.24A1.24,1.24,0,0,0,87.87,212ZM63.05,129.09a1.24,1.24,0,0,0,0,2.48,1.24,1.24,0,0,0,0-2.48Zm0-8.27a1.24,1.24,0,0,0,0,2.48,1.24,1.24,0,0,0,0-2.48Zm0-8.27a1.24,1.24,0,0,0,0,2.48,1.24,1.24,0,0,0,0-2.48Zm0,33.08a1.24,1.24,0,1,0,0,2.48,1.24,1.24,0,1,0,0-2.48Zm0-8.27a1.24,1.24,0,1,0,0,2.48,1.24,1.24,0,0,0,0-2.48Zm0,16.54a1.24,1.24,0,1,0,0,2.48,1.24,1.24,0,0,0,0-2.48Zm0-49.62a1.24,1.24,0,1,0,1.24,1.24A1.24,1.24,0,0,0,63.05,104.28Zm0-8.27a1.24,1.24,0,1,0,1.24,1.24A1.24,1.24,0,0,0,63.05,96Zm-4.13,95.28A1.24,1.24,0,1,0,60.06,193a1.2,1.2,0,0,0,0-1A1.24,1.24,0,0,0,58.92,191.29ZM63.05,71.2a1.24,1.24,0,1,0,1.24,1.24A1.24,1.24,0,0,0,63.05,71.2Zm0-8.27a1.24,1.24,0,1,0,1.24,1.24A1.24,1.24,0,0,0,63.05,62.93Zm0,16.54a1.24,1.24,0,1,0,1.24,1.24A1.24,1.24,0,0,0,63.05,79.47Zm0,8.27A1.24,1.24,0,1,0,64.29,89,1.24,1.24,0,0,0,63.05,87.74Zm4.14-4.14a1.24,1.24,0,1,0,1.24,1.24A1.24,1.24,0,0,0,67.19,83.6Zm0-16.54a1.24,1.24,0,1,0,1.24,1.24A1.24,1.24,0,0,0,67.19,67.06Zm-8.27,132.5a1.23,1.23,0,1,0,1.24,1.24,1.29,1.29,0,0,0-.1-.48A1.24,1.24,0,0,0,58.92,199.56ZM67.19,75.33a1.24,1.24,0,1,0,1.24,1.24A1.24,1.24,0,0,0,67.19,75.33Zm0,16.54a1.24,1.24,0,1,0,1.24,1.24A1.24,1.24,0,0,0,67.19,91.87Zm0,24.82a1.24,1.24,0,0,0,0,2.48,1.24,1.24,0,0,0,0-2.48Zm0-16.55a1.24,1.24,0,1,0,1.24,1.24A1.24,1.24,0,0,0,67.19,100.14ZM63.05,203.7a1.24,1.24,0,1,0,1.24,1.24A1.24,1.24,0,0,0,63.05,203.7Zm0-24.82a1.24,1.24,0,1,0,0,2.48,1.24,1.24,0,1,0,0-2.48Zm0-8.27a1.24,1.24,0,1,0,0,2.48,1.24,1.24,0,0,0,0-2.48Zm0,16.54a1.24,1.24,0,1,0,0,2.48,1.24,1.24,0,0,0,0-2.48Zm0-24.81a1.24,1.24,0,0,0,0,2.48,1.24,1.24,0,0,0,0-2.48Zm0,33.09a1.24,1.24,0,1,0,1.24,1.24A1.24,1.24,0,0,0,63.05,195.43ZM67.19,58.79A1.24,1.24,0,1,0,68.43,60,1.24,1.24,0,0,0,67.19,58.79Zm0,49.62a1.25,1.25,0,1,0,1.24,1.24A1.24,1.24,0,0,0,67.19,108.41Zm-12.41,62.2a1.24,1.24,0,1,0,0,2.48,1.24,1.24,0,0,0,0-2.48Zm0,16.54a1.24,1.24,0,1,0,0,2.48,1.24,1.24,0,0,0,0-2.48Zm0-33.25a1.24,1.24,0,1,0,0,2.48,1.24,1.24,0,0,0,0-2.48Zm0,8.44a1.24,1.24,0,1,0,0,2.48,1.24,1.24,0,0,0,0-2.48Zm0,16.54a1.24,1.24,0,1,0,0,2.48,1.24,1.24,0,0,0,0-2.48ZM58.92,58.79A1.23,1.23,0,1,0,60.16,60a1.29,1.29,0,0,0-.1-.48A1.24,1.24,0,0,0,58.92,58.79Zm-4.14,53.76a1.24,1.24,0,0,0,0,2.48,1.24,1.24,0,0,0,0-2.48ZM58.92,183a1.24,1.24,0,1,0,1.14,1.72,1.29,1.29,0,0,0,.1-.48A1.25,1.25,0,0,0,58.92,183Zm0-116a1.23,1.23,0,1,0,1.24,1.24,1.29,1.29,0,0,0-.1-.48A1.24,1.24,0,0,0,58.92,67.06Zm-4.14,37.22A1.24,1.24,0,1,0,56,105.52,1.24,1.24,0,0,0,54.78,104.28Zm0,33.08a1.24,1.24,0,1,0,0,2.48,1.24,1.24,0,0,0,0-2.48Zm0,8.27a1.24,1.24,0,1,0,0,2.48,1.24,1.24,0,0,0,0-2.48Zm0-16.54a1.24,1.24,0,1,0,0,2.48,1.24,1.24,0,0,0,0-2.48Zm0-8.27a1.24,1.24,0,0,0,0,2.48,1.24,1.24,0,0,0,0-2.48ZM58.92,158a1.24,1.24,0,1,0,1.14,1.72,1.29,1.29,0,0,0,.1-.48A1.25,1.25,0,0,0,58.92,158Zm0-24.81A1.24,1.24,0,1,0,60.06,135a1.29,1.29,0,0,0,.1-.48,1.34,1.34,0,0,0-.1-.49A1.24,1.24,0,0,0,58.92,133.23Zm0,8.27a1.23,1.23,0,0,0-1.24,1.24,2.11,2.11,0,0,0,0,.25,1.25,1.25,0,0,0,1.22,1,1.24,1.24,0,0,0,1.14-.76.88.88,0,0,0,.07-.23,1.07,1.07,0,0,0,0-.25,1.34,1.34,0,0,0-.1-.49A1.24,1.24,0,0,0,58.92,141.5Zm0,8.27a1.24,1.24,0,1,0,1.14,1.72,1.29,1.29,0,0,0,.1-.48,1.25,1.25,0,0,0-1.24-1.24Zm0,25A1.23,1.23,0,0,0,57.68,176a1.28,1.28,0,0,0,.09.48,1.24,1.24,0,0,0,2.29,0,1.29,1.29,0,0,0,.1-.48,1.25,1.25,0,0,0-1.24-1.24Zm0-8.27a1.24,1.24,0,1,0,1.14,1.72,1.29,1.29,0,0,0,.1-.48,1.25,1.25,0,0,0-1.24-1.24Zm0-82.88a1.24,1.24,0,1,0,1.14,1.73,1.34,1.34,0,0,0,.1-.49,1.29,1.29,0,0,0-.1-.48A1.24,1.24,0,0,0,58.92,83.6Zm0,16.54a1.24,1.24,0,1,0,1.14,1.73,1.23,1.23,0,0,0,0-1A1.25,1.25,0,0,0,58.92,100.14Zm0-8.27a1.24,1.24,0,1,0,1.14,1.73,1.34,1.34,0,0,0,.1-.49,1.29,1.29,0,0,0-.1-.48A1.25,1.25,0,0,0,58.92,91.87Zm0-16.54a1.24,1.24,0,1,0,1.14,1.73,1.34,1.34,0,0,0,.1-.49,1.29,1.29,0,0,0-.1-.48A1.24,1.24,0,0,0,58.92,75.33Zm0,41.36a1.24,1.24,0,0,0,0,2.48,1.25,1.25,0,0,0,1.14-.76,1.23,1.23,0,0,0,0-1A1.24,1.24,0,0,0,58.92,116.69Zm0,8.27a1.24,1.24,0,1,0,1.14,1.72,1.29,1.29,0,0,0,.1-.48,1.34,1.34,0,0,0-.1-.49A1.24,1.24,0,0,0,58.92,125Zm0-16.55a1.25,1.25,0,0,0,0,2.49,1.25,1.25,0,0,0,1.14-.76,1.23,1.23,0,0,0,0-1A1.25,1.25,0,0,0,58.92,108.41Zm12.4,95.29a1.24,1.24,0,1,0,1.24,1.24A1.24,1.24,0,0,0,71.32,203.7Zm4.14-95.29a1.24,1.24,0,0,0-1.14.76,1.12,1.12,0,0,0-.1.48,1.13,1.13,0,0,0,.1.49,1.24,1.24,0,1,0,1.14-1.73Zm0-8.27a1.24,1.24,0,0,0-1.14.76,1.12,1.12,0,0,0-.1.48,1.13,1.13,0,0,0,.1.49,1.24,1.24,0,0,0,2.38-.49A1.25,1.25,0,0,0,75.46,100.14Zm0-8.27a1.24,1.24,0,0,0-1.14.76,1.12,1.12,0,0,0-.1.48,1.16,1.16,0,0,0,.1.49,1.24,1.24,0,0,0,2.38-.49A1.25,1.25,0,0,0,75.46,91.87Zm0,24.82a1.23,1.23,0,0,0-1.14.75,1.13,1.13,0,0,0-.1.49,1.12,1.12,0,0,0,.1.48,1.24,1.24,0,1,0,1.14-1.72Zm0,16.54a1.23,1.23,0,0,0-1.14.75,1.16,1.16,0,0,0-.1.49,1.12,1.12,0,0,0,.1.48,1.23,1.23,0,0,0,1.14.76,1.24,1.24,0,1,0,0-2.48Zm0-8.27a1.23,1.23,0,0,0-1.14.75,1.16,1.16,0,0,0-.1.49,1.12,1.12,0,0,0,.1.48,1.23,1.23,0,0,0,1.14.76,1.24,1.24,0,0,0,0-2.48Zm0-41.36a1.23,1.23,0,0,0-1.14.76,1.12,1.12,0,0,0-.1.48,1.16,1.16,0,0,0,.1.49,1.24,1.24,0,0,0,2.38-.49A1.25,1.25,0,0,0,75.46,83.6Zm4.13,20.68a1.24,1.24,0,1,0,1.24,1.24A1.24,1.24,0,0,0,79.59,104.28ZM75.46,58.79a1.23,1.23,0,0,0-1.14.76,1.12,1.12,0,0,0-.1.48,1.09,1.09,0,0,0,.1.48,1.23,1.23,0,0,0,1.14.76,1.24,1.24,0,1,0,0-2.48ZM71.32,212a1.24,1.24,0,1,0,1.24,1.24A1.24,1.24,0,0,0,71.32,212Zm4.14-70.47a1.23,1.23,0,0,0-1.14.75,1.16,1.16,0,0,0-.1.49,2.11,2.11,0,0,0,0,.25.9.9,0,0,0,.08.23,1.23,1.23,0,0,0,2.35-.23,1.07,1.07,0,0,0,0-.25A1.24,1.24,0,0,0,75.46,141.5Zm0-66.17a1.23,1.23,0,0,0-1.14.76,1.12,1.12,0,0,0-.1.48,1.16,1.16,0,0,0,.1.49,1.24,1.24,0,0,0,2.38-.49A1.25,1.25,0,0,0,75.46,75.33Zm0-8.27a1.23,1.23,0,0,0-1.14.76,1.12,1.12,0,0,0-.1.48,1.09,1.09,0,0,0,.1.48,1.23,1.23,0,0,0,1.14.76,1.24,1.24,0,1,0,0-2.48Zm4.13,29a1.24,1.24,0,1,0,1.24,1.24A1.24,1.24,0,0,0,79.59,96Zm0-16.54a1.24,1.24,0,1,0,1.24,1.24A1.24,1.24,0,0,0,79.59,79.47Zm0-8.27a1.24,1.24,0,1,0,1.24,1.24A1.24,1.24,0,0,0,79.59,71.2Zm0-8.27a1.24,1.24,0,1,0,1.24,1.24A1.24,1.24,0,0,0,79.59,62.93Zm-8.27,132.5a1.24,1.24,0,1,0,1.24,1.24A1.24,1.24,0,0,0,71.32,195.43Zm4.14-45.66a1.23,1.23,0,0,0-1.14.76,1.09,1.09,0,0,0-.1.48,1.12,1.12,0,0,0,.1.48,1.23,1.23,0,0,0,1.14.76,1.24,1.24,0,0,0,0-2.48Zm0,49.79a1.23,1.23,0,0,0-1.14.76,1.12,1.12,0,0,0-.1.48,1.09,1.09,0,0,0,.1.48,1.23,1.23,0,0,0,1.14.76,1.24,1.24,0,0,0,0-2.48ZM79.59,87.74A1.24,1.24,0,1,0,80.83,89,1.24,1.24,0,0,0,79.59,87.74Zm-4.13,87a1.23,1.23,0,0,0-1.14.76,1.09,1.09,0,0,0-.1.48,1.12,1.12,0,0,0,.1.48,1.24,1.24,0,0,0,2.28,0,1.29,1.29,0,0,0,.1-.48A1.24,1.24,0,0,0,75.46,174.75Zm0-8.27a1.23,1.23,0,0,0-1.14.76,1.09,1.09,0,0,0-.1.48,1.12,1.12,0,0,0,.1.48,1.23,1.23,0,0,0,1.14.76,1.24,1.24,0,1,0,0-2.48Zm0-8.44a1.23,1.23,0,0,0-1.14.76,1.09,1.09,0,0,0-.1.48,1.12,1.12,0,0,0,.1.48,1.23,1.23,0,0,0,1.14.76,1.24,1.24,0,1,0,0-2.48Zm0,49.79a1.23,1.23,0,0,0-1.14.76,1.12,1.12,0,0,0-.1.48,1.09,1.09,0,0,0,.1.48,1.23,1.23,0,0,0,1.14.76,1.24,1.24,0,1,0,0-2.48Zm0-24.81a1.23,1.23,0,0,0-1.14.76,1.09,1.09,0,0,0-.1.48,1.12,1.12,0,0,0,.1.48,1.23,1.23,0,0,0,1.14.76,1.24,1.24,0,1,0,0-2.48Zm0,8.27a1.23,1.23,0,0,0-1.14.76,1.2,1.2,0,0,0,0,1,1.23,1.23,0,0,0,1.14.76,1.24,1.24,0,1,0,0-2.48ZM71.32,79.47a1.24,1.24,0,1,0,1.24,1.24A1.24,1.24,0,0,0,71.32,79.47ZM67.19,125a1.24,1.24,0,0,0,0,2.48,1.24,1.24,0,0,0,0-2.48Zm0,66.33a1.24,1.24,0,1,0,1.24,1.24A1.23,1.23,0,0,0,67.19,191.29Zm0-8.27a1.24,1.24,0,1,0,0,2.48,1.24,1.24,0,0,0,0-2.48Zm0,16.54a1.24,1.24,0,1,0,1.24,1.24A1.24,1.24,0,0,0,67.19,199.56ZM71.32,71.2a1.24,1.24,0,1,0,1.24,1.24A1.24,1.24,0,0,0,71.32,71.2Zm0-8.27a1.24,1.24,0,1,0,1.24,1.24A1.24,1.24,0,0,0,71.32,62.93Zm-4.13,144.9a1.24,1.24,0,1,0,1.24,1.24A1.24,1.24,0,0,0,67.19,207.83Zm0-58.06a1.24,1.24,0,1,0,0,2.48,1.24,1.24,0,0,0,0-2.48Zm0,25A1.23,1.23,0,0,0,66,176a1.12,1.12,0,0,0,.1.48,1.22,1.22,0,0,0,1.14.76,1.24,1.24,0,0,0,1.14-.76,1.29,1.29,0,0,0,.1-.48A1.24,1.24,0,0,0,67.19,174.75Zm0-41.52a1.24,1.24,0,1,0,0,2.48,1.24,1.24,0,0,0,0-2.48Zm0,8.27A1.23,1.23,0,0,0,66,142.74a2.11,2.11,0,0,0,0,.25,1.25,1.25,0,0,0,1.22,1,1.23,1.23,0,0,0,1.21-1,1.07,1.07,0,0,0,0-.25A1.24,1.24,0,0,0,67.19,141.5Zm0,25a1.24,1.24,0,1,0,0,2.48,1.24,1.24,0,0,0,0-2.48Zm0-8.44a1.24,1.24,0,1,0,0,2.48,1.24,1.24,0,0,0,0-2.48Zm4.13-12.41a1.24,1.24,0,1,0,0,2.48,1.24,1.24,0,0,0,0-2.48Zm0,8.27a1.24,1.24,0,1,0,0,2.48,1.24,1.24,0,0,0,0-2.48Zm0,8.44a1.24,1.24,0,0,0,0,2.48,1.24,1.24,0,0,0,0-2.48Zm0,24.81a1.24,1.24,0,1,0,0,2.48,1.24,1.24,0,1,0,0-2.48Zm0-49.79a1.24,1.24,0,1,0,0,2.48,1.24,1.24,0,0,0,0-2.48Zm0,33.25a1.24,1.24,0,1,0,0,2.48,1.24,1.24,0,0,0,0-2.48Zm0,8.27a1.24,1.24,0,1,0,0,2.48,1.24,1.24,0,0,0,0-2.48Zm0-58.06a1.24,1.24,0,0,0,0,2.48,1.24,1.24,0,0,0,0-2.48Zm0-24.81a1.24,1.24,0,1,0,1.24,1.24A1.24,1.24,0,0,0,71.32,96Zm0,33.08a1.24,1.24,0,0,0,0,2.48,1.24,1.24,0,1,0,0-2.48Zm0-24.81a1.24,1.24,0,1,0,1.24,1.24A1.24,1.24,0,0,0,71.32,104.28Zm0-16.54A1.24,1.24,0,1,0,72.56,89,1.24,1.24,0,0,0,71.32,87.74Zm0,24.81a1.24,1.24,0,0,0,0,2.48,1.24,1.24,0,0,0,0-2.48ZM203.65,96a1.24,1.24,0,1,0,1.24,1.24A1.24,1.24,0,0,0,203.65,96Zm0-8.27A1.24,1.24,0,1,0,204.89,89,1.24,1.24,0,0,0,203.65,87.74ZM199.52,183a1.24,1.24,0,1,0,0,2.48,1.24,1.24,0,0,0,0-2.48Zm4.13-120.09a1.24,1.24,0,1,0,1.24,1.24A1.24,1.24,0,0,0,203.65,62.93Zm0,16.54a1.24,1.24,0,1,0,1.24,1.24A1.24,1.24,0,0,0,203.65,79.47Zm0-8.27a1.24,1.24,0,1,0,1.24,1.24A1.24,1.24,0,0,0,203.65,71.2Zm-4.13,95.28a1.24,1.24,0,0,0,0,2.48,1.24,1.24,0,0,0,0-2.48Zm0,8.27a1.23,1.23,0,0,0-1.24,1.24,1.28,1.28,0,0,0,.09.48,1.24,1.24,0,0,0,2.29,0,1.29,1.29,0,0,0,.1-.48A1.24,1.24,0,0,0,199.52,174.75Zm0-49.79a1.24,1.24,0,0,0,0,2.48,1.24,1.24,0,0,0,0-2.48Zm0,33.25a1.24,1.24,0,0,0,0,2.48,1.24,1.24,0,0,0,0-2.48Zm0-41.52a1.24,1.24,0,0,0,0,2.48,1.24,1.24,0,0,0,0-2.48Zm0,16.54a1.24,1.24,0,0,0,0,2.48,1.24,1.24,0,0,0,0-2.48Zm0,16.54a1.24,1.24,0,0,0,0,2.48,1.24,1.24,0,0,0,0-2.48Zm0-8.27a1.23,1.23,0,0,0-1.24,1.24,2.11,2.11,0,0,0,0,.25,1.25,1.25,0,0,0,1.22,1,1.23,1.23,0,0,0,1.21-1,1.07,1.07,0,0,0,0-.25A1.24,1.24,0,0,0,199.52,141.5Zm4.13,12.4a1.24,1.24,0,0,0,0,2.48,1.24,1.24,0,0,0,0-2.48Zm0,16.71a1.24,1.24,0,0,0,0,2.48,1.24,1.24,0,0,0,0-2.48Zm0-8.27a1.24,1.24,0,0,0,0,2.48,1.24,1.24,0,0,0,0-2.48Zm-4.13-53.93a1.25,1.25,0,1,0,1.24,1.24A1.24,1.24,0,0,0,199.52,108.41Zm4.13,78.74a1.24,1.24,0,1,0,0,2.48,1.24,1.24,0,0,0,0-2.48ZM54.78,96A1.24,1.24,0,1,0,56,97.25,1.24,1.24,0,0,0,54.78,96Zm148.87,82.87a1.24,1.24,0,1,0,0,2.48,1.24,1.24,0,0,0,0-2.48Zm4.14-111.82A1.23,1.23,0,1,0,209,68.3a1.29,1.29,0,0,0-.1-.48A1.24,1.24,0,0,0,207.79,67.06Zm-4.14,53.76a1.24,1.24,0,0,0,0,2.48,1.24,1.24,0,0,0,0-2.48Zm0-8.27a1.24,1.24,0,0,0,0,2.48,1.24,1.24,0,0,0,0-2.48Zm-78.57-4.14a1.25,1.25,0,1,0,1.24,1.24A1.25,1.25,0,0,0,125.08,108.41Zm78.57,29a1.24,1.24,0,1,0,0,2.48,1.24,1.24,0,1,0,0-2.48Zm0,8.27a1.24,1.24,0,1,0,0,2.48,1.24,1.24,0,0,0,0-2.48Zm0-16.54a1.24,1.24,0,0,0,0,2.48,1.24,1.24,0,0,0,0-2.48Zm4.14-70.3A1.23,1.23,0,1,0,209,60a1.29,1.29,0,0,0-.1-.48A1.24,1.24,0,0,0,207.79,58.79ZM125.08,199.56a1.24,1.24,0,0,0,0,2.48,1.24,1.24,0,0,0,0-2.48Zm0-8.27a1.24,1.24,0,1,0,1.24,1.24A1.24,1.24,0,0,0,125.08,191.29Zm0-8.27a1.24,1.24,0,1,0,1.24,1.24A1.24,1.24,0,0,0,125.08,183Zm0,41.35a1.24,1.24,0,0,0,0,2.48,1.24,1.24,0,0,0,0-2.48Zm0-16.54a1.24,1.24,0,1,0,0,2.48,1.24,1.24,0,1,0,0-2.48Zm0-33.08a1.24,1.24,0,0,0-1.24,1.24,1.29,1.29,0,0,0,.1.48,1.24,1.24,0,0,0,2.29,0,1.28,1.28,0,0,0,.09-.48A1.23,1.23,0,0,0,125.08,174.75Zm0-41.52a1.24,1.24,0,1,0,1.24,1.24A1.24,1.24,0,0,0,125.08,133.23Zm0,82.87a1.24,1.24,0,1,0,0,2.48,1.24,1.24,0,0,0,0-2.48Zm0-91.14a1.24,1.24,0,1,0,1.24,1.24A1.24,1.24,0,0,0,125.08,125Zm0-8.27a1.24,1.24,0,1,0,1.24,1.24A1.24,1.24,0,0,0,125.08,116.69Zm0,49.79a1.24,1.24,0,1,0,1.24,1.24A1.24,1.24,0,0,0,125.08,166.48Zm0-25a1.24,1.24,0,0,0-1.24,1.24,1.07,1.07,0,0,0,0,.25,1.23,1.23,0,0,0,1.21,1,1.25,1.25,0,0,0,1.22-1,2.11,2.11,0,0,0,0-.25A1.23,1.23,0,0,0,125.08,141.5Zm0,8.27a1.24,1.24,0,1,0,1.24,1.24A1.24,1.24,0,0,0,125.08,149.77ZM219,163.58a1.24,1.24,0,0,0,1.24,1.24h.07c.26-.71.52-1.43.77-2.15a1.24,1.24,0,0,0-2.08.91ZM199.52,75.33a1.24,1.24,0,1,0,1.24,1.24A1.24,1.24,0,0,0,199.52,75.33Zm0,116a1.24,1.24,0,1,0,1.24,1.24A1.23,1.23,0,0,0,199.52,191.29Zm0-132.5A1.24,1.24,0,1,0,200.76,60,1.24,1.24,0,0,0,199.52,58.79Zm0,8.27a1.24,1.24,0,1,0,1.24,1.24A1.24,1.24,0,0,0,199.52,67.06Zm0,24.81a1.24,1.24,0,1,0,1.24,1.24A1.24,1.24,0,0,0,199.52,91.87Zm0-8.27a1.24,1.24,0,1,0,1.24,1.24A1.24,1.24,0,0,0,199.52,83.6ZM224.3,94.35c-.17-.78-.35-1.55-.54-2.32a1.19,1.19,0,0,0-.57.6,1.12,1.12,0,0,0-.1.48,1.16,1.16,0,0,0,.1.49A1.23,1.23,0,0,0,224.3,94.35Zm-12.38,84.53a1.24,1.24,0,1,0,0,2.48,1.16,1.16,0,0,0,.38-.06c.29-.47.57-.94.84-1.42A1.24,1.24,0,0,0,211.92,178.88Zm12.41-76.26a1.24,1.24,0,0,0,1.14-.75,1.23,1.23,0,0,0,0-1,1.23,1.23,0,0,0-2.28,0,1.12,1.12,0,0,0-.1.48,1.13,1.13,0,0,0,.1.49A1.23,1.23,0,0,0,224.33,102.62ZM125.08,158a1.24,1.24,0,0,0-1.24,1.24s0,.06,0,.08,0,.06,0,.09a1.24,1.24,0,0,0,2.48,0,.28.28,0,0,0,0-.09.19.19,0,0,0,0-.08A1.23,1.23,0,0,0,125.08,158Zm98.11-7.51a1.09,1.09,0,0,0-.1.48,1.12,1.12,0,0,0,.1.48,1.2,1.2,0,0,0,.88.72c.19-.8.36-1.6.53-2.4a1.26,1.26,0,0,0-.27,0A1.23,1.23,0,0,0,223.19,150.53Zm-23.67-50.39a1.24,1.24,0,1,0,1.24,1.24A1.24,1.24,0,0,0,199.52,100.14ZM214.82,176a1.12,1.12,0,0,0,.1.48.41.41,0,0,0,.05.09q.48-.88.93-1.8A1.24,1.24,0,0,0,214.82,176Zm-11.17-71.71a1.24,1.24,0,1,0,1.24,1.24A1.24,1.24,0,0,0,203.65,104.28Zm16.54-16.54A1.24,1.24,0,1,0,221.43,89,1.24,1.24,0,0,0,220.19,87.74Zm-4.13,62a1.24,1.24,0,1,0,0,2.48,1.24,1.24,0,1,0,0-2.48Zm0-8.27a1.23,1.23,0,0,0-1.24,1.24,2.11,2.11,0,0,0,0,.25,1.25,1.25,0,0,0,1.22,1,1.23,1.23,0,0,0,1.21-1,1.07,1.07,0,0,0,0-.25A1.24,1.24,0,0,0,216.06,141.5Zm0-8.27a1.24,1.24,0,0,0,0,2.48,1.24,1.24,0,0,0,0-2.48ZM220.19,82a1.25,1.25,0,0,0,.48-.1q-.42-1.17-.87-2.31a1.23,1.23,0,0,0-.85,1.17A1.25,1.25,0,0,0,220.19,82Zm-4.13,76.26a1.24,1.24,0,0,0,0,2.48,1.24,1.24,0,1,0,0-2.48Zm0,8.27a1.24,1.24,0,0,0,0,2.48,1.24,1.24,0,0,0,0-2.48Zm0-66.34a1.24,1.24,0,1,0,1.24,1.24A1.24,1.24,0,0,0,216.06,100.14Zm0-24.81a1.24,1.24,0,1,0,1.24,1.24A1.24,1.24,0,0,0,216.06,75.33Zm0,8.27a1.24,1.24,0,1,0,1.24,1.24A1.24,1.24,0,0,0,216.06,83.6Zm0,41.36a1.24,1.24,0,0,0,0,2.48,1.24,1.24,0,0,0,0-2.48Zm0-16.55a1.25,1.25,0,1,0,1.24,1.24A1.24,1.24,0,0,0,216.06,108.41Zm0,8.28a1.24,1.24,0,0,0,0,2.48,1.24,1.24,0,0,0,0-2.48Zm0-24.82a1.24,1.24,0,1,0,1.24,1.24A1.24,1.24,0,0,0,216.06,91.87Zm-115.79,116a1.24,1.24,0,1,0,0,2.48,1.24,1.24,0,1,0,0-2.48ZM224.33,125a1.23,1.23,0,0,0-1.14.75,1.16,1.16,0,0,0-.1.49,1.12,1.12,0,0,0,.1.48,1.23,1.23,0,0,0,2.28,0,1.29,1.29,0,0,0,.1-.48,1.34,1.34,0,0,0-.1-.49A1.24,1.24,0,0,0,224.33,125Zm-4.14,20.67a1.24,1.24,0,0,0,0,2.48,1.24,1.24,0,0,0,0-2.48Zm4.14-37.22a1.24,1.24,0,0,0-1.14.76,1.12,1.12,0,0,0-.1.48,1.13,1.13,0,0,0,.1.49,1.24,1.24,0,0,0,2.28,0,1.23,1.23,0,0,0,0-1A1.25,1.25,0,0,0,224.33,108.41Zm0,24.82a1.23,1.23,0,0,0-1.14.75,1.16,1.16,0,0,0-.1.49,1.12,1.12,0,0,0,.1.48,1.23,1.23,0,0,0,2.28,0,1.29,1.29,0,0,0,.1-.48,1.34,1.34,0,0,0-.1-.49A1.24,1.24,0,0,0,224.33,133.23Zm0,8.27a1.23,1.23,0,0,0-1.14.75,1.16,1.16,0,0,0-.1.49,2.11,2.11,0,0,0,0,.25,1.55,1.55,0,0,0,.08.23,1.23,1.23,0,0,0,2.28,0,.88.88,0,0,0,.07-.23,1.07,1.07,0,0,0,0-.25,1.34,1.34,0,0,0-.1-.49A1.24,1.24,0,0,0,224.33,141.5Zm-4.14-4.14a1.24,1.24,0,1,0,0,2.48,1.24,1.24,0,1,0,0-2.48Zm0-24.81a1.24,1.24,0,0,0,0,2.48,1.24,1.24,0,0,0,0-2.48Zm0,8.27a1.24,1.24,0,0,0,0,2.48,1.24,1.24,0,0,0,0-2.48Zm0-16.54a1.24,1.24,0,1,0,1.24,1.24A1.24,1.24,0,0,0,220.19,104.28Zm0,49.62a1.24,1.24,0,1,0,0,2.48,1.24,1.24,0,1,0,0-2.48Zm0-24.81a1.24,1.24,0,0,0,0,2.48,1.24,1.24,0,0,0,0-2.48Zm0-33.08a1.24,1.24,0,1,0,1.24,1.24A1.24,1.24,0,0,0,220.19,96Zm-12.4,4.13a1.24,1.24,0,1,0,1.14,1.73,1.23,1.23,0,0,0,0-1A1.25,1.25,0,0,0,207.79,100.14Zm0,33.09a1.24,1.24,0,1,0,1.14,1.72,1.29,1.29,0,0,0,.1-.48,1.34,1.34,0,0,0-.1-.49A1.24,1.24,0,0,0,207.79,133.23Zm0,25a1.24,1.24,0,1,0,1.14,1.72,1.29,1.29,0,0,0,.1-.48,1.34,1.34,0,0,0-.1-.49A1.24,1.24,0,0,0,207.79,158.21Zm0,16.54a1.23,1.23,0,0,0-1.24,1.24,1.12,1.12,0,0,0,.1.48,1.22,1.22,0,0,0,1.14.76,1.24,1.24,0,0,0,1.14-.76,1.29,1.29,0,0,0,.1-.48,1.25,1.25,0,0,0-1.24-1.24Zm0-25a1.24,1.24,0,1,0,1.14,1.72,1.29,1.29,0,0,0,.1-.48,1.25,1.25,0,0,0-1.24-1.24Zm0,33.25a1.24,1.24,0,1,0,1.14,1.72,1.29,1.29,0,0,0,.1-.48,1.25,1.25,0,0,0-1.24-1.24Zm0-16.54a1.24,1.24,0,1,0,1.14,1.72,1.29,1.29,0,0,0,.1-.48,1.25,1.25,0,0,0-1.24-1.24Zm0-25a1.23,1.23,0,0,0-1.24,1.24,2.11,2.11,0,0,0,0,.25,1.25,1.25,0,0,0,1.22,1,1.24,1.24,0,0,0,1.14-.76A.88.88,0,0,0,209,143a1.07,1.07,0,0,0,0-.25,1.34,1.34,0,0,0-.1-.49A1.24,1.24,0,0,0,207.79,141.5Zm0-49.63a1.24,1.24,0,1,0,1.14,1.73,1.34,1.34,0,0,0,.1-.49,1.29,1.29,0,0,0-.1-.48A1.25,1.25,0,0,0,207.79,91.87Zm0-16.54a1.24,1.24,0,1,0,1.14,1.73,1.34,1.34,0,0,0,.1-.49,1.29,1.29,0,0,0-.1-.48A1.24,1.24,0,0,0,207.79,75.33Zm0,8.27a1.24,1.24,0,1,0,1.14,1.73,1.34,1.34,0,0,0,.1-.49,1.29,1.29,0,0,0-.1-.48A1.24,1.24,0,0,0,207.79,83.6Zm0,33.09a1.24,1.24,0,1,0,0,2.48,1.25,1.25,0,0,0,1.14-.76,1.23,1.23,0,0,0,0-1A1.24,1.24,0,0,0,207.79,116.69Zm0,8.27a1.24,1.24,0,1,0,1.14,1.72,1.29,1.29,0,0,0,.1-.48,1.34,1.34,0,0,0-.1-.49A1.24,1.24,0,0,0,207.79,125Zm0-16.55a1.25,1.25,0,0,0,0,2.49,1.25,1.25,0,0,0,1.14-.76,1.23,1.23,0,0,0,0-1A1.25,1.25,0,0,0,207.79,108.41Zm4.13,62.2a1.24,1.24,0,1,0,0,2.48,1.24,1.24,0,1,0,0-2.48Zm0-33.25a1.24,1.24,0,1,0,0,2.48,1.24,1.24,0,1,0,0-2.48Zm0,8.27a1.24,1.24,0,1,0,0,2.48,1.24,1.24,0,0,0,0-2.48Zm0-16.54a1.24,1.24,0,0,0,0,2.48,1.24,1.24,0,0,0,0-2.48Zm0,33.25a1.24,1.24,0,1,0,0,2.48,1.24,1.24,0,1,0,0-2.48Zm0-49.79a1.24,1.24,0,1,0,0,2.48,1.24,1.24,0,0,0,0-2.48Zm0,41.35a1.24,1.24,0,1,0,0,2.48,1.24,1.24,0,1,0,0-2.48Zm0-66.16A1.24,1.24,0,1,0,213.16,89,1.24,1.24,0,0,0,211.92,87.74Zm0-16.54a1.24,1.24,0,1,0,1.24,1.24A1.24,1.24,0,0,0,211.92,71.2Zm0,8.27a1.24,1.24,0,1,0,1.24,1.24A1.24,1.24,0,0,0,211.92,79.47Zm0,24.81a1.24,1.24,0,1,0,1.24,1.24A1.24,1.24,0,0,0,211.92,104.28Zm0-8.27a1.24,1.24,0,1,0,1.24,1.24A1.24,1.24,0,0,0,211.92,96Zm0-30.6a1.29,1.29,0,0,0,.87-.35c-.41-.7-.83-1.39-1.25-2.07a1.24,1.24,0,0,0,.38,2.42Zm12.41,51.28a1.23,1.23,0,0,0-1.14.75,1.13,1.13,0,0,0-.1.49,1.12,1.12,0,0,0,.1.48,1.24,1.24,0,0,0,2.28,0,1.23,1.23,0,0,0,0-1A1.24,1.24,0,0,0,224.33,116.69ZM108.54,174.75A1.24,1.24,0,0,0,107.3,176a1.29,1.29,0,0,0,.1.48,1.24,1.24,0,0,0,2.28,0,1.12,1.12,0,0,0,.1-.48A1.23,1.23,0,0,0,108.54,174.75Zm0,8.27a1.24,1.24,0,1,0,1.24,1.24A1.24,1.24,0,0,0,108.54,183Zm0-16.54a1.24,1.24,0,1,0,1.24,1.24A1.24,1.24,0,0,0,108.54,166.48Zm0,24.81a1.24,1.24,0,1,0,1.24,1.24A1.24,1.24,0,0,0,108.54,191.29Zm0-91.15a1.24,1.24,0,0,0,0,2.48,1.24,1.24,0,0,0,0-2.48Zm0,99.42a1.24,1.24,0,0,0,0,2.48,1.24,1.24,0,0,0,0-2.48Zm0-58.06a1.24,1.24,0,0,0-1.24,1.24,1.07,1.07,0,0,0,0,.25,1.23,1.23,0,0,0,1.21,1,1.25,1.25,0,0,0,1.22-1,2.11,2.11,0,0,0,0-.25A1.23,1.23,0,0,0,108.54,141.5Zm4.14,12.4a1.24,1.24,0,1,0,1.24,1.24A1.24,1.24,0,0,0,112.68,153.9Zm-4.14-45.49a1.25,1.25,0,1,0,1.24,1.24A1.25,1.25,0,0,0,108.54,108.41Zm0,41.36a1.24,1.24,0,1,0,1.24,1.24A1.24,1.24,0,0,0,108.54,149.77Zm0-24.81a1.24,1.24,0,1,0,1.24,1.24A1.24,1.24,0,0,0,108.54,125Zm0,82.87a1.24,1.24,0,1,0,0,2.48,1.24,1.24,0,1,0,0-2.48Zm0-74.6a1.24,1.24,0,1,0,1.24,1.24A1.24,1.24,0,0,0,108.54,133.23Zm0,24.81a1.24,1.24,0,1,0,1.24,1.24A1.24,1.24,0,0,0,108.54,158Zm4.14-28.95a1.24,1.24,0,1,0,1.24,1.24A1.24,1.24,0,0,0,112.68,129.09Zm0-8.27a1.24,1.24,0,1,0,1.24,1.24A1.24,1.24,0,0,0,112.68,120.82Zm0-8.27a1.24,1.24,0,1,0,1.24,1.24A1.24,1.24,0,0,0,112.68,112.55Zm0,24.81a1.24,1.24,0,1,0,1.24,1.24A1.24,1.24,0,0,0,112.68,137.36Zm0-33.08a1.24,1.24,0,1,0,0,2.48,1.24,1.24,0,1,0,0-2.48Zm0,41.35a1.24,1.24,0,1,0,1.24,1.24A1.24,1.24,0,0,0,112.68,145.63Zm-4.14,70.47a1.24,1.24,0,1,0,0,2.48,1.24,1.24,0,0,0,0-2.48ZM112.68,96a1.24,1.24,0,0,0,0,2.48,1.24,1.24,0,0,0,0-2.48Zm0-24.81a1.24,1.24,0,1,0,0,2.48,1.24,1.24,0,1,0,0-2.48Zm-4.14,153.17a1.24,1.24,0,0,0,0,2.48,1.24,1.24,0,0,0,0-2.48Zm4.14-161.44a1.24,1.24,0,0,0,0,2.48,1.24,1.24,0,0,0,0-2.48Zm0,16.54a1.24,1.24,0,0,0,0,2.48,1.24,1.24,0,0,0,0-2.48Zm0,8.27a1.24,1.24,0,0,0,0,2.48,1.24,1.24,0,0,0,0-2.48Zm-4.14,29a1.24,1.24,0,1,0,1.24,1.24A1.24,1.24,0,0,0,108.54,116.69Zm-4.13,4.13a1.24,1.24,0,1,0,1.24,1.24A1.24,1.24,0,0,0,104.41,120.82Zm0-8.27a1.24,1.24,0,1,0,1.24,1.24A1.24,1.24,0,0,0,104.41,112.55Zm0-8.27a1.24,1.24,0,1,0,0,2.48,1.24,1.24,0,1,0,0-2.48Zm0-8.27a1.24,1.24,0,0,0,0,2.48,1.24,1.24,0,1,0,0-2.48Zm0,33.08a1.24,1.24,0,1,0,1.24,1.24A1.24,1.24,0,0,0,104.41,129.09Zm0,8.27a1.24,1.24,0,1,0,1.24,1.24A1.24,1.24,0,0,0,104.41,137.36Zm4.13-45.49a1.24,1.24,0,0,0,0,2.48,1.24,1.24,0,0,0,0-2.48ZM100.27,216.1a1.24,1.24,0,1,0,0,2.48,1.24,1.24,0,1,0,0-2.48Zm0,8.27a1.24,1.24,0,0,0,0,2.48,1.24,1.24,0,0,0,0-2.48Zm4.14-78.74a1.24,1.24,0,1,0,1.24,1.24A1.24,1.24,0,0,0,104.41,145.63Zm0-82.7a1.24,1.24,0,0,0,0,2.48,1.24,1.24,0,1,0,0-2.48Zm0,8.27a1.24,1.24,0,1,0,0,2.48,1.24,1.24,0,1,0,0-2.48Zm0,8.27a1.24,1.24,0,1,0,0,2.48,1.24,1.24,0,1,0,0-2.48Zm0,8.27a1.24,1.24,0,1,0,0,2.48,1.24,1.24,0,1,0,0-2.48Zm4.13-20.68a1.24,1.24,0,1,0,0,2.48,1.24,1.24,0,1,0,0-2.48Zm0-8.27a1.24,1.24,0,0,0,0,2.48,1.24,1.24,0,0,0,0-2.48Zm16.54,41.35a1.24,1.24,0,1,0,0,2.48,1.24,1.24,0,0,0,0-2.48Zm-20.67,120.1a1.24,1.24,0,1,0,0,2.48,1.24,1.24,0,1,0,0-2.48Zm0-66.34a1.24,1.24,0,1,0,1.24,1.24A1.24,1.24,0,0,0,104.41,153.9Zm4.13-78.57a1.24,1.24,0,0,0,0,2.48,1.24,1.24,0,0,0,0-2.48Zm0,8.27a1.24,1.24,0,0,0,0,2.48,1.24,1.24,0,0,0,0-2.48Zm-4.13,87a1.24,1.24,0,1,0,1.24,1.24A1.24,1.24,0,0,0,104.41,170.61Zm0-8.27a1.24,1.24,0,1,0,1.24,1.24A1.24,1.24,0,0,0,104.41,162.34Zm0,16.54a1.24,1.24,0,1,0,1.24,1.24A1.24,1.24,0,0,0,104.41,178.88Zm0,16.55a1.24,1.24,0,1,0,0,2.48,1.24,1.24,0,1,0,0-2.48Zm0-8.28a1.24,1.24,0,1,0,1.24,1.24A1.24,1.24,0,0,0,104.41,187.15Zm0,16.55a1.24,1.24,0,1,0,0,2.48,1.24,1.24,0,1,0,0-2.48Zm0,8.27a1.24,1.24,0,0,0,0,2.48,1.24,1.24,0,0,0,0-2.48ZM121,120.82a1.24,1.24,0,1,0,1.24,1.24A1.24,1.24,0,0,0,121,120.82Zm0,33.08a1.24,1.24,0,1,0,1.24,1.24A1.24,1.24,0,0,0,121,153.9Zm0-24.81a1.24,1.24,0,1,0,1.24,1.24A1.24,1.24,0,0,0,121,129.09Zm0,16.54a1.24,1.24,0,1,0,1.24,1.24A1.24,1.24,0,0,0,121,145.63Zm0-8.27a1.24,1.24,0,1,0,1.24,1.24A1.24,1.24,0,0,0,121,137.36Zm0-33.08a1.24,1.24,0,0,0,0,2.48,1.24,1.24,0,0,0,0-2.48Zm0,8.27a1.24,1.24,0,1,0,1.24,1.24A1.24,1.24,0,0,0,121,112.55Zm0-49.62a1.24,1.24,0,0,0,0,2.48,1.24,1.24,0,0,0,0-2.48Zm0,8.27a1.24,1.24,0,1,0,0,2.48,1.24,1.24,0,1,0,0-2.48ZM121,96a1.24,1.24,0,0,0,0,2.48A1.24,1.24,0,0,0,121,96ZM116.81,216.1a1.24,1.24,0,1,0,0,2.48,1.24,1.24,0,0,0,0-2.48ZM121,79.47A1.24,1.24,0,1,0,121,82a1.24,1.24,0,1,0,0-2.48Zm0,8.27a1.24,1.24,0,0,0,0,2.48,1.24,1.24,0,0,0,0-2.48Zm0,107.69a1.24,1.24,0,1,0,0,2.48,1.24,1.24,0,1,0,0-2.48Zm4.13-120.1a1.24,1.24,0,1,0,0,2.48,1.24,1.24,0,1,0,0-2.48Zm0-8.27a1.24,1.24,0,1,0,0,2.48,1.24,1.24,0,1,0,0-2.48Zm0-8.27a1.24,1.24,0,1,0,0,2.48,1.24,1.24,0,0,0,0-2.48Zm0,24.81a1.24,1.24,0,0,0,0,2.48,1.24,1.24,0,0,0,0-2.48ZM121,212a1.24,1.24,0,0,0,0,2.48,1.24,1.24,0,0,0,0-2.48Zm4.13-120.1a1.24,1.24,0,0,0,0,2.48,1.24,1.24,0,0,0,0-2.48ZM121,170.61a1.24,1.24,0,1,0,1.24,1.24A1.24,1.24,0,0,0,121,170.61Zm0,16.54a1.24,1.24,0,1,0,1.24,1.24A1.24,1.24,0,0,0,121,187.15Zm0-8.27a1.24,1.24,0,1,0,1.24,1.24A1.24,1.24,0,0,0,121,178.88Zm0-16.54a1.24,1.24,0,1,0,1.24,1.24A1.24,1.24,0,0,0,121,162.34Zm0,57.9a1.24,1.24,0,1,0,0,2.48,1.24,1.24,0,1,0,0-2.48Zm-4.14,4.13a1.24,1.24,0,0,0,0,2.48,1.24,1.24,0,0,0,0-2.48ZM121,203.7a1.24,1.24,0,1,0,0,2.48,1.24,1.24,0,0,0,0-2.48Zm-8.27,0a1.24,1.24,0,0,0,0,2.48,1.24,1.24,0,0,0,0-2.48Zm4.13-136.64a1.24,1.24,0,1,0,0,2.48,1.24,1.24,0,1,0,0-2.48Zm0,8.27a1.24,1.24,0,1,0,0,2.48,1.24,1.24,0,1,0,0-2.48Zm0-16.54a1.24,1.24,0,0,0,0,2.48,1.24,1.24,0,0,0,0-2.48Zm0,33.08a1.24,1.24,0,0,0,0,2.48,1.24,1.24,0,1,0,0-2.48ZM112.68,212a1.24,1.24,0,0,0,0,2.48,1.24,1.24,0,0,0,0-2.48ZM116.81,83.6a1.24,1.24,0,0,0,0,2.48,1.24,1.24,0,0,0,0-2.48Zm-4.13,78.74a1.24,1.24,0,1,0,1.24,1.24A1.24,1.24,0,0,0,112.68,162.34Zm0,24.81a1.24,1.24,0,1,0,1.24,1.24A1.24,1.24,0,0,0,112.68,187.15Zm0-8.27a1.24,1.24,0,1,0,1.24,1.24A1.24,1.24,0,0,0,112.68,178.88Zm0-8.27a1.24,1.24,0,1,0,1.24,1.24A1.24,1.24,0,0,0,112.68,170.61Zm0,24.82a1.24,1.24,0,1,0,0,2.48,1.24,1.24,0,1,0,0-2.48Zm0,24.81a1.24,1.24,0,1,0,0,2.48,1.24,1.24,0,1,0,0-2.48Zm4.13-120.1a1.24,1.24,0,0,0,0,2.48,1.24,1.24,0,0,0,0-2.48Zm0,41.36a1.24,1.24,0,0,0-1.24,1.24,1.07,1.07,0,0,0,0,.25,1.23,1.23,0,0,0,1.21,1,1.25,1.25,0,0,0,1.22-1,2.11,2.11,0,0,0,0-.25A1.23,1.23,0,0,0,116.81,141.5Zm0,41.52a1.24,1.24,0,1,0,1.24,1.24A1.24,1.24,0,0,0,116.81,183Zm0-8.27a1.24,1.24,0,0,0-1.24,1.24,1.29,1.29,0,0,0,.1.48,1.24,1.24,0,0,0,2.29,0,1.28,1.28,0,0,0,.09-.48A1.23,1.23,0,0,0,116.81,174.75Zm0-16.71a1.24,1.24,0,1,0,1.24,1.24A1.24,1.24,0,0,0,116.81,158Zm0,8.44a1.24,1.24,0,1,0,1.24,1.24A1.24,1.24,0,0,0,116.81,166.48Zm0,33.08a1.24,1.24,0,0,0,0,2.48,1.24,1.24,0,0,0,0-2.48Zm0-8.27a1.24,1.24,0,1,0,1.24,1.24A1.24,1.24,0,0,0,116.81,191.29Zm0,16.54a1.24,1.24,0,1,0,0,2.48,1.24,1.24,0,1,0,0-2.48Zm0-58.06a1.24,1.24,0,1,0,1.24,1.24A1.24,1.24,0,0,0,116.81,149.77Zm0-33.08a1.24,1.24,0,1,0,1.24,1.24A1.24,1.24,0,0,0,116.81,116.69Zm0,8.27a1.24,1.24,0,1,0,1.24,1.24A1.24,1.24,0,0,0,116.81,125Zm0-16.55a1.25,1.25,0,1,0,1.24,1.24A1.25,1.25,0,0,0,116.81,108.41Zm0,24.82a1.24,1.24,0,1,0,1.24,1.24A1.24,1.24,0,0,0,116.81,133.23Zm95.11-12.41a1.24,1.24,0,1,0,0,2.48,1.24,1.24,0,0,0,0-2.48ZM187.11,71.2a1.24,1.24,0,1,0,1.24,1.24A1.24,1.24,0,0,0,187.11,71.2Zm0-8.27a1.24,1.24,0,1,0,1.24,1.24A1.24,1.24,0,0,0,187.11,62.93Zm0,16.54a1.24,1.24,0,1,0,1.24,1.24A1.24,1.24,0,0,0,187.11,79.47Zm0,8.27A1.24,1.24,0,1,0,188.35,89,1.24,1.24,0,0,0,187.11,87.74ZM183,207.83a1.24,1.24,0,1,0,1.24,1.24A1.24,1.24,0,0,0,183,207.83Zm0-16.54a1.24,1.24,0,1,0,1.24,1.24A1.23,1.23,0,0,0,183,191.29Zm0,8.27a1.24,1.24,0,1,0,1.24,1.24A1.24,1.24,0,0,0,183,199.56Zm4.13-70.47a1.24,1.24,0,0,0,0,2.48,1.24,1.24,0,0,0,0-2.48Zm0-8.27a1.24,1.24,0,0,0,0,2.48,1.24,1.24,0,0,0,0-2.48Zm0-24.81a1.24,1.24,0,1,0,1.24,1.24A1.24,1.24,0,0,0,187.11,96Zm0,41.35a1.24,1.24,0,0,0,0,2.48,1.24,1.24,0,0,0,0-2.48Zm0-33.08a1.24,1.24,0,1,0,1.24,1.24A1.24,1.24,0,0,0,187.11,104.28Zm0,8.27a1.24,1.24,0,0,0,0,2.48,1.24,1.24,0,0,0,0-2.48ZM183,125a1.24,1.24,0,1,0,0,2.48,1.24,1.24,0,0,0,0-2.48ZM183,183a1.24,1.24,0,1,0,0,2.48,1.24,1.24,0,1,0,0-2.48Zm0-66.33a1.24,1.24,0,1,0,0,2.48,1.24,1.24,0,0,0,0-2.48Zm0-16.55a1.24,1.24,0,1,0,1.24,1.24A1.24,1.24,0,0,0,183,100.14Zm0-8.27a1.24,1.24,0,1,0,1.24,1.24A1.24,1.24,0,0,0,183,91.87Zm0-8.27a1.24,1.24,0,1,0,1.24,1.24A1.24,1.24,0,0,0,183,83.6Zm4.13,62a1.24,1.24,0,0,0,0,2.48,1.24,1.24,0,0,0,0-2.48ZM183,108.41a1.25,1.25,0,1,0,1.24,1.24A1.24,1.24,0,0,0,183,108.41Zm0,58.07a1.24,1.24,0,1,0,0,2.48,1.24,1.24,0,0,0,0-2.48Zm0,8.27a1.23,1.23,0,0,0-1.24,1.24,1.28,1.28,0,0,0,.09.48,1.24,1.24,0,0,0,2.29,0,1.29,1.29,0,0,0,.1-.48A1.24,1.24,0,0,0,183,174.75Zm0-16.54a1.24,1.24,0,1,0,0,2.48,1.24,1.24,0,1,0,0-2.48Zm0-8.44a1.24,1.24,0,1,0,0,2.48,1.24,1.24,0,1,0,0-2.48Zm0-16.54a1.24,1.24,0,1,0,0,2.48,1.24,1.24,0,0,0,0-2.48Zm0,8.27a1.23,1.23,0,0,0-1.24,1.24,1.06,1.06,0,0,0,0,.25,1.25,1.25,0,0,0,1.22,1,1.23,1.23,0,0,0,1.21-1,1.07,1.07,0,0,0,0-.25A1.24,1.24,0,0,0,183,141.5Zm8.27-33.09a1,1,0,0,0-.25,0,1.24,1.24,0,0,0,0,2.43,1,1,0,0,0,.25,0,1.25,1.25,0,0,0,1.14-.76,1.23,1.23,0,0,0,0-1A1.25,1.25,0,0,0,191.25,108.41Zm0,41.36-.25,0a1.24,1.24,0,0,0-1,1.22,1.23,1.23,0,0,0,1,1.21,1,1,0,0,0,.25,0,1.24,1.24,0,0,0,1.14-.76,1.29,1.29,0,0,0,.1-.48,1.25,1.25,0,0,0-1.24-1.24Zm0-8.27-.25,0a1.24,1.24,0,0,0-1,1.22,2.11,2.11,0,0,0,0,.25,1.24,1.24,0,0,0,1,1,1,1,0,0,0,.25,0,1.24,1.24,0,0,0,1.14-.76.88.88,0,0,0,.07-.23,1.07,1.07,0,0,0,0-.25,1.34,1.34,0,0,0-.1-.49A1.24,1.24,0,0,0,191.25,141.5Zm0,16.71-.25,0a1.24,1.24,0,0,0-1,1.22,1.23,1.23,0,0,0,1,1.21,1,1,0,0,0,.25,0,1.24,1.24,0,0,0,1.14-.76,1.29,1.29,0,0,0,.1-.48,1.34,1.34,0,0,0-.1-.49A1.24,1.24,0,0,0,191.25,158.21Zm-4.14-4.31a1.24,1.24,0,0,0,0,2.48,1.24,1.24,0,0,0,0-2.48Zm4.14,12.58-.25,0a1.24,1.24,0,0,0-1,1.22,1.23,1.23,0,0,0,1,1.21,1,1,0,0,0,.25,0,1.24,1.24,0,0,0,1.14-.76,1.29,1.29,0,0,0,.1-.48,1.25,1.25,0,0,0-1.24-1.24Zm0-41.52a1,1,0,0,0-.25,0,1.24,1.24,0,0,0-1,1.22,1.23,1.23,0,0,0,1,1.21,1,1,0,0,0,.25,0,1.24,1.24,0,0,0,1.14-.76,1.29,1.29,0,0,0,.1-.48,1.34,1.34,0,0,0-.1-.49A1.24,1.24,0,0,0,191.25,125Zm0,49.79-.25,0a1.24,1.24,0,0,0-1,1.22,1.28,1.28,0,0,0,.09.48,1.24,1.24,0,0,0,.9.73,1,1,0,0,0,.25,0,1.24,1.24,0,0,0,1.14-.76,1.29,1.29,0,0,0,.1-.48,1.25,1.25,0,0,0-1.24-1.24Zm4.13-95.28a1.24,1.24,0,1,0,1.24,1.24A1.24,1.24,0,0,0,195.38,79.47Zm-4.13,37.22a1,1,0,0,0-.25,0,1.24,1.24,0,0,0-1,1.22,1.23,1.23,0,0,0,1,1.21,1,1,0,0,0,.25,0,1.25,1.25,0,0,0,1.14-.76,1.23,1.23,0,0,0,0-1A1.24,1.24,0,0,0,191.25,116.69Zm4.13-45.49a1.24,1.24,0,1,0,1.24,1.24A1.24,1.24,0,0,0,195.38,71.2Zm-4.13,128.36a1,1,0,0,0-.25,0,1.23,1.23,0,0,0-1,1.21,1.24,1.24,0,0,0,1,1.22l.25,0a1.25,1.25,0,0,0,1.24-1.24,1.29,1.29,0,0,0-.1-.48A1.24,1.24,0,0,0,191.25,199.56Zm0-8.27-.25,0a1.25,1.25,0,0,0,0,2.44l.25,0a1.24,1.24,0,0,0,1.14-.76,1.2,1.2,0,0,0,0-1A1.24,1.24,0,0,0,191.25,191.29Zm0-8.27-.25,0a1.24,1.24,0,0,0-1,1.22,1.23,1.23,0,0,0,1,1.21,1,1,0,0,0,.25,0,1.24,1.24,0,0,0,1.14-.76,1.29,1.29,0,0,0,.1-.48,1.25,1.25,0,0,0-1.24-1.24Zm0-49.79-.25,0a1.24,1.24,0,0,0-1,1.22,1.23,1.23,0,0,0,1,1.21,1,1,0,0,0,.25,0,1.24,1.24,0,0,0,1.14-.76,1.29,1.29,0,0,0,.1-.48,1.34,1.34,0,0,0-.1-.49A1.24,1.24,0,0,0,191.25,133.23Zm-4.14,45.65a1.24,1.24,0,0,0,0,2.48,1.24,1.24,0,0,0,0-2.48Zm0,24.82a1.24,1.24,0,1,0,1.24,1.24A1.24,1.24,0,0,0,187.11,203.7Zm0-8.27a1.24,1.24,0,1,0,1.24,1.24A1.24,1.24,0,0,0,187.11,195.43Zm0-8.28a1.24,1.24,0,1,0,0,2.48,1.24,1.24,0,0,0,0-2.48Zm0-16.54a1.24,1.24,0,1,0,0,2.48,1.24,1.24,0,1,0,0-2.48Zm0-8.27a1.24,1.24,0,0,0,0,2.48,1.24,1.24,0,0,0,0-2.48Zm4.14-78.74a1,1,0,0,0-.25,0,1.23,1.23,0,0,0-1,1.21,1.24,1.24,0,0,0,1,1.22l.25,0a1.24,1.24,0,0,0,1.14-.75,1.34,1.34,0,0,0,.1-.49,1.29,1.29,0,0,0-.1-.48A1.24,1.24,0,0,0,191.25,83.6Zm0,8.27a1,1,0,0,0-.25,0,1.23,1.23,0,0,0-1,1.21,1.24,1.24,0,0,0,1,1.22,1,1,0,0,0,.25,0,1.24,1.24,0,0,0,1.14-.75,1.34,1.34,0,0,0,.1-.49,1.29,1.29,0,0,0-.1-.48A1.25,1.25,0,0,0,191.25,91.87Zm0,8.27a1,1,0,0,0-.25,0,1.23,1.23,0,0,0-1,1.21,1.24,1.24,0,0,0,1,1.22,1,1,0,0,0,.25,0,1.24,1.24,0,0,0,1.14-.75,1.23,1.23,0,0,0,0-1A1.25,1.25,0,0,0,191.25,100.14ZM183,75.33a1.24,1.24,0,1,0,1.24,1.24A1.24,1.24,0,0,0,183,75.33Zm8.27,0a1,1,0,0,0-.25,0,1.23,1.23,0,0,0-1,1.21,1.24,1.24,0,0,0,1,1.22l.25,0a1.24,1.24,0,0,0,1.14-.75,1.34,1.34,0,0,0,.1-.49,1.29,1.29,0,0,0-.1-.48A1.24,1.24,0,0,0,191.25,75.33Zm0-8.27a1,1,0,0,0-.25,0,1.23,1.23,0,0,0-1,1.21,1.24,1.24,0,0,0,1,1.22l.25,0a1.25,1.25,0,0,0,1.24-1.24,1.29,1.29,0,0,0-.1-.48A1.24,1.24,0,0,0,191.25,67.06Zm0-8.27a1,1,0,0,0-.25,0A1.23,1.23,0,0,0,190,60a1.24,1.24,0,0,0,1,1.22l.25,0A1.25,1.25,0,0,0,192.49,60a1.29,1.29,0,0,0-.1-.48A1.24,1.24,0,0,0,191.25,58.79ZM174.71,141.5l-.25,0a1.26,1.26,0,0,0-.9.73,1.33,1.33,0,0,0-.09.49,1.06,1.06,0,0,0,0,.25,1.55,1.55,0,0,0,.07.23,1.24,1.24,0,0,0,.9.73,1,1,0,0,0,.25,0,1.24,1.24,0,0,0,1.14-.76,1.55,1.55,0,0,0,.07-.23,1.07,1.07,0,0,0,0-.25,1.34,1.34,0,0,0-.1-.49A1.24,1.24,0,0,0,174.71,141.5Zm0-57.9a1,1,0,0,0-.25,0,1.24,1.24,0,0,0-.9.73,1.28,1.28,0,0,0-.09.48,1.33,1.33,0,0,0,.09.49,1.24,1.24,0,0,0,.9.73l.25,0a1.24,1.24,0,0,0,1.14-.75,1.34,1.34,0,0,0,.1-.49,1.29,1.29,0,0,0-.1-.48A1.24,1.24,0,0,0,174.71,83.6Zm0-8.27a1,1,0,0,0-.25,0,1.24,1.24,0,0,0-.9.73,1.28,1.28,0,0,0-.09.48,1.33,1.33,0,0,0,.09.49,1.24,1.24,0,0,0,.9.73l.25,0a1.24,1.24,0,0,0,1.14-.75,1.34,1.34,0,0,0,.1-.49,1.29,1.29,0,0,0-.1-.48A1.24,1.24,0,0,0,174.71,75.33Zm0,16.54a1,1,0,0,0-.25,0,1.24,1.24,0,0,0-.9.73,1.28,1.28,0,0,0-.09.48,1.33,1.33,0,0,0,.09.49,1.24,1.24,0,0,0,.9.73,1,1,0,0,0,.25,0,1.24,1.24,0,0,0,1.14-.75,1.34,1.34,0,0,0,.1-.49,1.29,1.29,0,0,0-.1-.48A1.25,1.25,0,0,0,174.71,91.87Zm0,8.27a1,1,0,0,0-.25,0,1.24,1.24,0,0,0-.9.73,1.28,1.28,0,0,0-.09.48,1.3,1.3,0,0,0,.09.49,1.24,1.24,0,0,0,.9.73,1,1,0,0,0,.25,0,1.24,1.24,0,0,0,1.14-.75,1.23,1.23,0,0,0,0-1A1.25,1.25,0,0,0,174.71,100.14Zm0-41.35a1,1,0,0,0-.25,0,1.24,1.24,0,0,0-.9.73,1.28,1.28,0,0,0-.09.48,1.22,1.22,0,0,0,1,1.22l.25,0A1.25,1.25,0,0,0,176,60a1.29,1.29,0,0,0-.1-.48A1.24,1.24,0,0,0,174.71,58.79Zm0,8.27a1,1,0,0,0-.25,0,1.24,1.24,0,0,0-.9.73,1.28,1.28,0,0,0-.09.48,1.22,1.22,0,0,0,1,1.22l.25,0A1.25,1.25,0,0,0,176,68.3a1.29,1.29,0,0,0-.1-.48A1.24,1.24,0,0,0,174.71,67.06Zm0,57.9a1,1,0,0,0-.25,0,1.24,1.24,0,0,0-.9.73,1.33,1.33,0,0,0-.09.49,1.28,1.28,0,0,0,.09.48,1.24,1.24,0,0,0,.9.73,1,1,0,0,0,.25,0,1.24,1.24,0,0,0,1.14-.76,1.29,1.29,0,0,0,.1-.48,1.34,1.34,0,0,0-.1-.49A1.24,1.24,0,0,0,174.71,125Zm20.67-37.22A1.24,1.24,0,1,0,196.62,89,1.24,1.24,0,0,0,195.38,87.74Zm-20.67,20.67a1,1,0,0,0-.25,0,1.24,1.24,0,0,0-.9.73,1.28,1.28,0,0,0-.09.48,1.3,1.3,0,0,0,.09.49,1.24,1.24,0,0,0,.9.73,1,1,0,0,0,.25,0,1.25,1.25,0,0,0,1.14-.76,1.23,1.23,0,0,0,0-1A1.25,1.25,0,0,0,174.71,108.41Zm0,41.36-.25,0a1.22,1.22,0,0,0-1,1.22,1.28,1.28,0,0,0,.09.48,1.24,1.24,0,0,0,.9.73,1,1,0,0,0,.25,0,1.24,1.24,0,0,0,1.14-.76,1.29,1.29,0,0,0,.1-.48,1.25,1.25,0,0,0-1.24-1.24Zm0-16.54-.25,0a1.24,1.24,0,0,0-.9.73,1.33,1.33,0,0,0-.09.49,1.28,1.28,0,0,0,.09.48,1.24,1.24,0,0,0,.9.73,1,1,0,0,0,.25,0,1.24,1.24,0,0,0,1.14-.76,1.29,1.29,0,0,0,.1-.48,1.34,1.34,0,0,0-.1-.49A1.24,1.24,0,0,0,174.71,133.23Zm0-16.54a1,1,0,0,0-.25,0,1.24,1.24,0,0,0-.9.73,1.3,1.3,0,0,0-.09.49,1.28,1.28,0,0,0,.09.48,1.24,1.24,0,0,0,.9.73,1,1,0,0,0,.25,0,1.25,1.25,0,0,0,1.14-.76,1.23,1.23,0,0,0,0-1A1.24,1.24,0,0,0,174.71,116.69Zm0,99.41a1,1,0,0,0-.25,0,1.24,1.24,0,0,0-.9.73,1.28,1.28,0,0,0-.09.48,1.33,1.33,0,0,0,.09.49,1.45,1.45,0,0,0,.33.45l2-1.15a1.38,1.38,0,0,0-.08-.27A1.24,1.24,0,0,0,174.71,216.1ZM170.57,212a1.24,1.24,0,1,0,1.24,1.24A1.24,1.24,0,0,0,170.57,212Zm0-58.07a1.24,1.24,0,1,0,0,2.48,1.24,1.24,0,1,0,0-2.48Zm0-16.54a1.24,1.24,0,1,0,0,2.48,1.24,1.24,0,1,0,0-2.48Zm0,8.27a1.24,1.24,0,1,0,0,2.48,1.24,1.24,0,0,0,0-2.48Zm0-16.54a1.24,1.24,0,1,0,0,2.48,1.24,1.24,0,1,0,0-2.48Zm0-16.54a1.24,1.24,0,1,0,0,2.48,1.24,1.24,0,0,0,0-2.48Zm0,8.27a1.24,1.24,0,1,0,0,2.48,1.24,1.24,0,0,0,0-2.48Zm4.14,37.39-.25,0a1.26,1.26,0,0,0-.9.73,1.33,1.33,0,0,0-.09.49,1.28,1.28,0,0,0,.09.48,1.24,1.24,0,0,0,.9.73,1,1,0,0,0,.25,0,1.24,1.24,0,0,0,1.14-.76,1.29,1.29,0,0,0,.1-.48,1.34,1.34,0,0,0-.1-.49A1.24,1.24,0,0,0,174.71,158.21Zm-4.14,4.13a1.24,1.24,0,0,0,0,2.48,1.24,1.24,0,0,0,0-2.48Zm0,24.81a1.24,1.24,0,1,0,0,2.48,1.24,1.24,0,1,0,0-2.48Zm0,16.55a1.24,1.24,0,1,0,1.24,1.24A1.24,1.24,0,0,0,170.57,203.7Zm0-8.27a1.24,1.24,0,1,0,1.24,1.24A1.24,1.24,0,0,0,170.57,195.43Zm0-24.82a1.24,1.24,0,1,0,0,2.48,1.24,1.24,0,1,0,0-2.48Zm0,8.27a1.24,1.24,0,1,0,0,2.48,1.24,1.24,0,0,0,0-2.48Zm8.27-49.79a1.24,1.24,0,0,0,0,2.48,1.24,1.24,0,1,0,0-2.48Zm0,16.54a1.24,1.24,0,0,0,0,2.48,1.24,1.24,0,1,0,0-2.48Zm0,8.27a1.24,1.24,0,0,0,0,2.48,1.24,1.24,0,1,0,0-2.48Zm0,8.44a1.24,1.24,0,0,0,0,2.48,1.24,1.24,0,0,0,0-2.48Zm0-41.52a1.24,1.24,0,0,0,0,2.48,1.24,1.24,0,0,0,0-2.48Zm0,16.54a1.24,1.24,0,0,0,0,2.48,1.24,1.24,0,1,0,0-2.48Zm0,33.25a1.24,1.24,0,1,0,0,2.48,1.24,1.24,0,1,0,0-2.48ZM183,58.79A1.24,1.24,0,1,0,184.22,60,1.24,1.24,0,0,0,183,58.79ZM178.84,203.7a1.24,1.24,0,1,0,1.24,1.24A1.24,1.24,0,0,0,178.84,203.7Zm0,8.27a1.24,1.24,0,1,0,1.24,1.24A1.24,1.24,0,0,0,178.84,212ZM183,67.06a1.24,1.24,0,1,0,1.24,1.24A1.24,1.24,0,0,0,183,67.06Zm-4.14,111.82a1.24,1.24,0,0,0,0,2.48,1.24,1.24,0,1,0,0-2.48Zm0,8.27a1.24,1.24,0,1,0,0,2.48,1.24,1.24,0,1,0,0-2.48Zm0,8.28a1.24,1.24,0,1,0,1.24,1.24A1.24,1.24,0,0,0,178.84,195.43Zm-4.13-20.68-.25,0a1.22,1.22,0,0,0-1,1.22,1.28,1.28,0,0,0,.09.48,1.24,1.24,0,0,0,.9.73,1,1,0,0,0,.25,0,1.24,1.24,0,0,0,1.14-.76,1.29,1.29,0,0,0,.1-.48,1.25,1.25,0,0,0-1.24-1.24Zm0,24.81a1,1,0,0,0-.25,0,1.24,1.24,0,0,0-.9.73,1.28,1.28,0,0,0-.09.48,1.22,1.22,0,0,0,1,1.22l.25,0A1.25,1.25,0,0,0,176,200.8a1.29,1.29,0,0,0-.1-.48A1.24,1.24,0,0,0,174.71,199.56Zm0,8.27a1,1,0,0,0-.25,0,1.24,1.24,0,0,0-.9.73,1.28,1.28,0,0,0-.09.48,1.22,1.22,0,0,0,1,1.22l.25,0a1.25,1.25,0,0,0,1.24-1.24,1.29,1.29,0,0,0-.1-.48A1.24,1.24,0,0,0,174.71,207.83ZM178.84,71.2a1.24,1.24,0,1,0,1.24,1.24A1.24,1.24,0,0,0,178.84,71.2Zm-4.13,120.09-.25,0a1.25,1.25,0,0,0,0,2.44l.25,0a1.24,1.24,0,0,0,1.14-.76,1.2,1.2,0,0,0,0-1A1.24,1.24,0,0,0,174.71,191.29Zm0-24.81-.25,0a1.22,1.22,0,0,0-1,1.22,1.28,1.28,0,0,0,.09.48,1.24,1.24,0,0,0,.9.73,1,1,0,0,0,.25,0,1.24,1.24,0,0,0,1.14-.76,1.29,1.29,0,0,0,.1-.48,1.25,1.25,0,0,0-1.24-1.24Zm0,16.54-.25,0a1.28,1.28,0,0,0-.9.74,1.24,1.24,0,0,0-.09.48,1.28,1.28,0,0,0,.09.48,1.24,1.24,0,0,0,.9.73,1,1,0,0,0,.25,0,1.24,1.24,0,0,0,1.14-.76,1.29,1.29,0,0,0,.1-.48,1.25,1.25,0,0,0-1.24-1.24Zm4.13-78.74a1.24,1.24,0,1,0,1.24,1.24A1.24,1.24,0,0,0,178.84,104.28Zm0-8.27a1.24,1.24,0,1,0,1.24,1.24A1.24,1.24,0,0,0,178.84,96Zm0,16.54a1.24,1.24,0,0,0,0,2.48,1.24,1.24,0,0,0,0-2.48Zm0-24.81A1.24,1.24,0,1,0,180.08,89,1.24,1.24,0,0,0,178.84,87.74Zm0-24.81a1.24,1.24,0,1,0,1.24,1.24A1.24,1.24,0,0,0,178.84,62.93Zm-8.27,41.35a1.24,1.24,0,1,0,1.24,1.24A1.24,1.24,0,0,0,170.57,104.28Zm8.27-24.81a1.24,1.24,0,1,0,1.24,1.24A1.24,1.24,0,0,0,178.84,79.47ZM42.38,158l-.25,0a1.24,1.24,0,0,0-1,1.22,1.23,1.23,0,0,0,1,1.21,1,1,0,0,0,.25,0,1.24,1.24,0,0,0,1.14-.76,1.29,1.29,0,0,0,.1-.48A1.25,1.25,0,0,0,42.38,158Zm0,25-.25,0a1.24,1.24,0,0,0-1,1.22,1.23,1.23,0,0,0,1,1.21,1,1,0,0,0,.25,0,1.24,1.24,0,0,0,1.14-.76,1.29,1.29,0,0,0,.1-.48A1.25,1.25,0,0,0,42.38,183Zm0-8.27-.25,0a1.24,1.24,0,0,0-1,1.22,1.28,1.28,0,0,0,.09.48,1.24,1.24,0,0,0,.9.73,1,1,0,0,0,.25,0,1.24,1.24,0,0,0,1.14-.76,1.29,1.29,0,0,0,.1-.48,1.25,1.25,0,0,0-1.24-1.24Zm0-8.27-.25,0a1.24,1.24,0,0,0-1,1.22,1.23,1.23,0,0,0,1,1.21,1,1,0,0,0,.25,0,1.24,1.24,0,0,0,1.14-.76,1.29,1.29,0,0,0,.1-.48,1.25,1.25,0,0,0-1.24-1.24Zm4.13-53.93a1.24,1.24,0,0,0,0,2.48,1.24,1.24,0,0,0,0-2.48Zm-4.13,37.22-.25,0a1.24,1.24,0,0,0-1,1.22,1.23,1.23,0,0,0,1,1.21,1,1,0,0,0,.25,0,1.24,1.24,0,0,0,1.14-.76,1.29,1.29,0,0,0,.1-.48,1.25,1.25,0,0,0-1.24-1.24Zm0-16.54-.25,0a1.24,1.24,0,0,0-1,1.22,1.23,1.23,0,0,0,1,1.21,1,1,0,0,0,.25,0,1.24,1.24,0,0,0,1.14-.76,1.29,1.29,0,0,0,.1-.48,1.34,1.34,0,0,0-.1-.49A1.24,1.24,0,0,0,42.38,133.23Zm4.13-45.49A1.24,1.24,0,1,0,47.75,89,1.24,1.24,0,0,0,46.51,87.74Zm0,8.27a1.24,1.24,0,1,0,1.24,1.24A1.24,1.24,0,0,0,46.51,96Zm0,8.27a1.24,1.24,0,1,0,1.24,1.24A1.24,1.24,0,0,0,46.51,104.28Zm0-24.81a1.24,1.24,0,1,0,1.24,1.24A1.24,1.24,0,0,0,46.51,79.47Zm0-16.54a1.24,1.24,0,1,0,1.24,1.24A1.24,1.24,0,0,0,46.51,62.93Zm0,8.27a1.24,1.24,0,1,0,1.24,1.24A1.24,1.24,0,0,0,46.51,71.2Zm-4.13,70.3-.25,0a1.24,1.24,0,0,0-1,1.22,1.06,1.06,0,0,0,0,.25,1.24,1.24,0,0,0,1,1,1,1,0,0,0,.25,0,1.24,1.24,0,0,0,1.14-.76.88.88,0,0,0,.07-.23,1.07,1.07,0,0,0,0-.25,1.34,1.34,0,0,0-.1-.49A1.24,1.24,0,0,0,42.38,141.5Zm-8.12,33.26q.47.92.93,1.8a.47.47,0,0,0,.06-.09,1.29,1.29,0,0,0,.1-.48A1.25,1.25,0,0,0,34.26,174.76Zm4,4.12a1.25,1.25,0,0,0-1.22,1l.84,1.42a1.21,1.21,0,0,0,.38.06,1.24,1.24,0,0,0,0-2.48ZM42.38,58.79a1,1,0,0,0-.25,0,1.23,1.23,0,0,0-1,1.21,1.24,1.24,0,0,0,1,1.22l.25,0A1.25,1.25,0,0,0,43.62,60a1.29,1.29,0,0,0-.1-.48A1.24,1.24,0,0,0,42.38,58.79Zm0,8.27a1,1,0,0,0-.25,0,1.23,1.23,0,0,0-1,1.21,1.24,1.24,0,0,0,1,1.22l.25,0a1.25,1.25,0,0,0,1.24-1.24,1.29,1.29,0,0,0-.1-.48A1.24,1.24,0,0,0,42.38,67.06ZM30,162.34a1.26,1.26,0,0,0-.84.33c.25.72.51,1.44.78,2.15H30a1.24,1.24,0,0,0,0-2.48Zm-4.13-12.57-.25,0h0c.17.81.35,1.61.53,2.41a1.23,1.23,0,0,0,.89-.72,1.29,1.29,0,0,0,.1-.48,1.25,1.25,0,0,0-1.24-1.24ZM42.38,75.33a1,1,0,0,0-.25,0,1.23,1.23,0,0,0-1,1.21,1.24,1.24,0,0,0,1,1.22l.25,0a1.24,1.24,0,0,0,1.14-.75,1.34,1.34,0,0,0,.1-.49,1.29,1.29,0,0,0-.1-.48A1.24,1.24,0,0,0,42.38,75.33Zm0,49.63a1,1,0,0,0-.25,0,1.24,1.24,0,0,0-1,1.22,1.23,1.23,0,0,0,1,1.21,1,1,0,0,0,.25,0,1.24,1.24,0,0,0,1.14-.76,1.29,1.29,0,0,0,.1-.48,1.34,1.34,0,0,0-.1-.49A1.24,1.24,0,0,0,42.38,125Zm0-16.55a1,1,0,0,0-.25,0,1.24,1.24,0,0,0,0,2.43,1,1,0,0,0,.25,0,1.25,1.25,0,0,0,1.14-.76,1.23,1.23,0,0,0,0-1A1.25,1.25,0,0,0,42.38,108.41Zm0,8.28a1,1,0,0,0-.25,0,1.24,1.24,0,0,0-1,1.22,1.23,1.23,0,0,0,1,1.21,1,1,0,0,0,.25,0,1.25,1.25,0,0,0,1.14-.76,1.23,1.23,0,0,0,0-1A1.24,1.24,0,0,0,42.38,116.69ZM195.38,96a1.24,1.24,0,1,0,1.24,1.24A1.24,1.24,0,0,0,195.38,96ZM42.38,83.6a1,1,0,0,0-.25,0,1.23,1.23,0,0,0-1,1.21,1.24,1.24,0,0,0,1,1.22l.25,0a1.24,1.24,0,0,0,1.14-.75,1.34,1.34,0,0,0,.1-.49,1.29,1.29,0,0,0-.1-.48A1.24,1.24,0,0,0,42.38,83.6Zm0,8.27a1,1,0,0,0-.25,0,1.23,1.23,0,0,0-1,1.21,1.24,1.24,0,0,0,1,1.22,1,1,0,0,0,.25,0,1.24,1.24,0,0,0,1.14-.75,1.34,1.34,0,0,0,.1-.49,1.29,1.29,0,0,0-.1-.48A1.25,1.25,0,0,0,42.38,91.87Zm8.27,82.88A1.23,1.23,0,0,0,49.41,176a1.28,1.28,0,0,0,.09.48,1.24,1.24,0,0,0,2.29,0,1.29,1.29,0,0,0,.1-.48A1.24,1.24,0,0,0,50.65,174.75Zm0-33.25a1.23,1.23,0,0,0-1.24,1.24,2.11,2.11,0,0,0,0,.25,1.25,1.25,0,0,0,1.22,1,1.23,1.23,0,0,0,1.21-1,1.07,1.07,0,0,0,0-.25A1.24,1.24,0,0,0,50.65,141.5Zm0-8.27a1.24,1.24,0,1,0,0,2.48,1.24,1.24,0,0,0,0-2.48Zm0,24.81a1.24,1.24,0,1,0,0,2.48,1.24,1.24,0,0,0,0-2.48Zm0-8.27a1.24,1.24,0,1,0,0,2.48,1.24,1.24,0,0,0,0-2.48Zm0-24.81a1.24,1.24,0,1,0,0,2.48,1.24,1.24,0,0,0,0-2.48Zm-4.14-4.14a1.24,1.24,0,0,0,0,2.48,1.24,1.24,0,0,0,0-2.48ZM38.62,63c-.42.68-.83,1.37-1.24,2.07a1.26,1.26,0,0,0,.86.35A1.24,1.24,0,0,0,38.62,63Zm12-4.2A1.24,1.24,0,1,0,51.89,60,1.24,1.24,0,0,0,50.65,58.79Zm0,49.62a1.25,1.25,0,1,0,1.24,1.24A1.24,1.24,0,0,0,50.65,108.41Zm0,82.88a1.24,1.24,0,1,0,1.24,1.24A1.23,1.23,0,0,0,50.65,191.29Zm0-8.27a1.24,1.24,0,1,0,0,2.48,1.24,1.24,0,0,0,0-2.48Zm0-16.54a1.24,1.24,0,1,0,0,2.48,1.24,1.24,0,0,0,0-2.48Zm-24.81-25-.25,0a1.25,1.25,0,0,0-1,1.22,1.07,1.07,0,0,0,0,.25,1.24,1.24,0,0,0,1,1,1,1,0,0,0,.25,0,1.24,1.24,0,0,0,1.14-.76,1.55,1.55,0,0,0,.07-.23,1.07,1.07,0,0,0,0-.25,1.34,1.34,0,0,0-.1-.49A1.24,1.24,0,0,0,25.84,141.5Zm24.81-24.81a1.24,1.24,0,0,0,0,2.48,1.24,1.24,0,0,0,0-2.48Zm-4.14,28.94a1.24,1.24,0,1,0,0,2.48,1.24,1.24,0,0,0,0-2.48Zm0,8.27a1.24,1.24,0,1,0,0,2.48,1.24,1.24,0,0,0,0-2.48Zm0,8.44a1.24,1.24,0,0,0,0,2.48,1.24,1.24,0,0,0,0-2.48Zm0-25a1.24,1.24,0,1,0,0,2.48,1.24,1.24,0,0,0,0-2.48Zm0,33.25a1.24,1.24,0,1,0,0,2.48,1.24,1.24,0,0,0,0-2.48Zm0-41.52a1.24,1.24,0,0,0,0,2.48,1.24,1.24,0,0,0,0-2.48Zm0,58.06a1.24,1.24,0,0,0,0,2.48,1.24,1.24,0,0,0,0-2.48ZM50.65,83.6a1.24,1.24,0,1,0,1.24,1.24A1.24,1.24,0,0,0,50.65,83.6Zm0,8.27a1.24,1.24,0,1,0,1.24,1.24A1.24,1.24,0,0,0,50.65,91.87Zm0-24.81a1.24,1.24,0,1,0,1.24,1.24A1.24,1.24,0,0,0,50.65,67.06Zm0,33.08a1.24,1.24,0,1,0,1.24,1.24A1.24,1.24,0,0,0,50.65,100.14Zm0-24.81a1.24,1.24,0,1,0,1.24,1.24A1.24,1.24,0,0,0,50.65,75.33ZM46.51,178.88a1.24,1.24,0,1,0,0,2.48,1.24,1.24,0,0,0,0-2.48Zm-4.13-78.74a1,1,0,0,0-.25,0,1.23,1.23,0,0,0-1,1.21,1.24,1.24,0,0,0,1,1.22,1,1,0,0,0,.25,0,1.24,1.24,0,0,0,1.14-.75,1.23,1.23,0,0,0,0-1A1.25,1.25,0,0,0,42.38,100.14Zm-4.14,37.22a1.24,1.24,0,1,0,0,2.48,1.24,1.24,0,1,0,0-2.48Zm0,8.27a1.24,1.24,0,1,0,0,2.48,1.24,1.24,0,0,0,0-2.48Zm0-16.54a1.24,1.24,0,1,0,0,2.48,1.24,1.24,0,0,0,0-2.48Zm0,41.52a1.24,1.24,0,1,0,0,2.48,1.24,1.24,0,1,0,0-2.48Zm0-49.79a1.24,1.24,0,0,0,0,2.48,1.24,1.24,0,0,0,0-2.48Zm0,33.08a1.24,1.24,0,1,0,0,2.48,1.24,1.24,0,1,0,0-2.48Zm0-41.35a1.24,1.24,0,0,0,0,2.48,1.24,1.24,0,0,0,0-2.48Zm0-24.81A1.24,1.24,0,1,0,39.48,89,1.24,1.24,0,0,0,38.24,87.74Zm0-8.27a1.24,1.24,0,1,0,1.24,1.24A1.24,1.24,0,0,0,38.24,79.47Zm0-8.27a1.24,1.24,0,1,0,1.24,1.24A1.24,1.24,0,0,0,38.24,71.2Zm0,24.81a1.24,1.24,0,1,0,1.24,1.24A1.24,1.24,0,0,0,38.24,96Zm-4.13,62a1.24,1.24,0,1,0,0,2.48,1.24,1.24,0,0,0,0-2.48Zm4.13,4.3a1.24,1.24,0,1,0,0,2.48,1.24,1.24,0,0,0,0-2.48Zm0-58.06a1.24,1.24,0,1,0,1.24,1.24A1.24,1.24,0,0,0,38.24,104.28Zm157.14,41.35a1.24,1.24,0,0,0,0,2.48,1.24,1.24,0,0,0,0-2.48Zm0-24.81a1.24,1.24,0,0,0,0,2.48,1.24,1.24,0,0,0,0-2.48Zm0,16.54a1.24,1.24,0,0,0,0,2.48,1.24,1.24,0,1,0,0-2.48Zm0-74.43a1.24,1.24,0,1,0,1.24,1.24A1.24,1.24,0,0,0,195.38,62.93Zm0,41.35a1.24,1.24,0,1,0,1.24,1.24A1.24,1.24,0,0,0,195.38,104.28Zm0,8.27a1.24,1.24,0,0,0,0,2.48,1.24,1.24,0,0,0,0-2.48Zm0,16.54a1.24,1.24,0,0,0,0,2.48,1.24,1.24,0,0,0,0-2.48Zm0,49.79a1.24,1.24,0,0,0,0,2.48,1.24,1.24,0,0,0,0-2.48Zm0-25a1.24,1.24,0,0,0,0,2.48,1.24,1.24,0,1,0,0-2.48Zm0,41.53a1.24,1.24,0,1,0,1.24,1.24A1.24,1.24,0,0,0,195.38,195.43Zm0-8.28a1.24,1.24,0,1,0,0,2.48,1.24,1.24,0,1,0,0-2.48Zm0-16.54a1.24,1.24,0,0,0,0,2.48,1.24,1.24,0,1,0,0-2.48Zm0-8.27a1.24,1.24,0,0,0,0,2.48,1.24,1.24,0,1,0,0-2.48ZM25.84,100.14a1,1,0,0,0-.25,0,1.23,1.23,0,0,0-1,1.21,1.25,1.25,0,0,0,1,1.22,1,1,0,0,0,.25,0,1.24,1.24,0,0,0,1.14-.75,1.23,1.23,0,0,0,0-1A1.25,1.25,0,0,0,25.84,100.14ZM30,96a1.24,1.24,0,1,0,1.24,1.24A1.24,1.24,0,0,0,30,96Zm0,8.27a1.24,1.24,0,1,0,1.24,1.24A1.24,1.24,0,0,0,30,104.28Zm0,16.54a1.24,1.24,0,0,0,0,2.48,1.24,1.24,0,0,0,0-2.48Zm0,33.08a1.24,1.24,0,1,0,0,2.48,1.24,1.24,0,0,0,0-2.48Zm0-16.54a1.24,1.24,0,1,0,0,2.48,1.24,1.24,0,0,0,0-2.48Zm0-8.27a1.24,1.24,0,1,0,0,2.48,1.24,1.24,0,0,0,0-2.48Zm0-16.54A1.24,1.24,0,0,0,30,115a1.24,1.24,0,0,0,0-2.48Zm-4.13,4.14a1,1,0,0,0-.25,0,1.25,1.25,0,0,0-1,1.22,1.23,1.23,0,0,0,1,1.21,1,1,0,0,0,.25,0,1.25,1.25,0,0,0,1.14-.76,1.23,1.23,0,0,0,0-1A1.24,1.24,0,0,0,25.84,116.69Zm0,16.54-.25,0a1.25,1.25,0,0,0-1,1.22,1.23,1.23,0,0,0,1,1.21,1,1,0,0,0,.25,0A1.24,1.24,0,0,0,27,135a1.29,1.29,0,0,0,.1-.48A1.34,1.34,0,0,0,27,134,1.24,1.24,0,0,0,25.84,133.23Zm0-24.82a1,1,0,0,0-.25,0,1.24,1.24,0,0,0,0,2.43,1,1,0,0,0,.25,0,1.25,1.25,0,0,0,1.14-.76,1.23,1.23,0,0,0,0-1A1.25,1.25,0,0,0,25.84,108.41ZM26.41,92c-.19.77-.37,1.54-.54,2.32A1.24,1.24,0,0,0,27,93.6a1.34,1.34,0,0,0,.1-.49,1.29,1.29,0,0,0-.1-.48A1.23,1.23,0,0,0,26.41,92ZM25.84,125a1,1,0,0,0-.25,0,1.25,1.25,0,0,0-1,1.22,1.23,1.23,0,0,0,1,1.21,1,1,0,0,0,.25,0,1.24,1.24,0,0,0,1.14-.76,1.29,1.29,0,0,0,.1-.48,1.34,1.34,0,0,0-.1-.49A1.24,1.24,0,0,0,25.84,125ZM30,87.74A1.24,1.24,0,1,0,31.21,89,1.24,1.24,0,0,0,30,87.74ZM34.11,125a1.24,1.24,0,1,0,0,2.48,1.24,1.24,0,1,0,0-2.48Zm0,41.52a1.24,1.24,0,1,0,0,2.48,1.24,1.24,0,0,0,0-2.48Zm0-49.79a1.24,1.24,0,0,0,0,2.48,1.24,1.24,0,0,0,0-2.48Zm0-8.28a1.25,1.25,0,1,0,1.24,1.24A1.24,1.24,0,0,0,34.11,108.41Zm0,24.82a1.24,1.24,0,1,0,0,2.48,1.24,1.24,0,0,0,0-2.48Zm0,8.27a1.23,1.23,0,0,0-1.24,1.24,1.06,1.06,0,0,0,0,.25,1.25,1.25,0,0,0,1.22,1,1.23,1.23,0,0,0,1.21-1,1.07,1.07,0,0,0,0-.25A1.24,1.24,0,0,0,34.11,141.5Zm0,8.27a1.24,1.24,0,1,0,0,2.48,1.24,1.24,0,0,0,0-2.48ZM30.36,79.54q-.45,1.14-.87,2.31A1.29,1.29,0,0,0,30,82a1.24,1.24,0,0,0,.39-2.41Zm3.75-4.21a1.24,1.24,0,1,0,1.24,1.24A1.24,1.24,0,0,0,34.11,75.33ZM30,145.63a1.24,1.24,0,1,0,0,2.48,1.24,1.24,0,0,0,0-2.48Zm4.14-45.49a1.24,1.24,0,1,0,1.24,1.24A1.24,1.24,0,0,0,34.11,100.14Zm0-16.54a1.24,1.24,0,1,0,1.24,1.24A1.24,1.24,0,0,0,34.11,83.6Zm0,8.27a1.24,1.24,0,1,0,1.24,1.24A1.24,1.24,0,0,0,34.11,91.87ZM141.62,141.5a1.27,1.27,0,0,0-.69.21,1.24,1.24,0,0,0-.55,1,1.07,1.07,0,0,0,0,.25,1.25,1.25,0,0,0,.52.78,1.27,1.27,0,0,0,.69.21,1.24,1.24,0,0,0,.88-.36,1.26,1.26,0,0,0,.34-.63,1.06,1.06,0,0,0,0-.25,1.27,1.27,0,0,0-.36-.88A1.24,1.24,0,0,0,141.62,141.5Zm0-66.17a1.27,1.27,0,0,0-.69.21,1.25,1.25,0,0,0-.55,1,1.24,1.24,0,0,0,.55,1,1.2,1.2,0,0,0,.69.21,1.24,1.24,0,0,0,.88-.36,1.26,1.26,0,0,0,.36-.88,1.27,1.27,0,0,0-.36-.88A1.24,1.24,0,0,0,141.62,75.33Zm-4.13,144.91a1.24,1.24,0,1,0,0,2.48,1.24,1.24,0,1,0,0-2.48Zm4.13-161.45a1.27,1.27,0,0,0-.69.21,1.25,1.25,0,0,0-.55,1,1.24,1.24,0,0,0,.55,1,1.27,1.27,0,0,0,.69.21,1.24,1.24,0,0,0,.88-.36,1.26,1.26,0,0,0,0-1.76A1.24,1.24,0,0,0,141.62,58.79Zm4.14,136.64a1.24,1.24,0,1,0,0,2.48,1.24,1.24,0,1,0,0-2.48Zm-8.27,8.27a1.24,1.24,0,0,0,0,2.48,1.24,1.24,0,0,0,0-2.48Zm0,8.27a1.24,1.24,0,0,0,0,2.48,1.24,1.24,0,0,0,0-2.48Zm4.13-144.91a1.27,1.27,0,0,0-.69.21,1.25,1.25,0,0,0-.55,1,1.24,1.24,0,0,0,.55,1,1.27,1.27,0,0,0,.69.21,1.24,1.24,0,0,0,.88-.36,1.26,1.26,0,0,0,0-1.76A1.24,1.24,0,0,0,141.62,67.06Zm0,41.35a1.2,1.2,0,0,0-.69.22,1.23,1.23,0,0,0,0,2.05,1.21,1.21,0,0,0,1.57-.15,1.24,1.24,0,0,0,0-1.75A1.21,1.21,0,0,0,141.62,108.41Zm0,8.28a1.2,1.2,0,0,0-.69.21,1.23,1.23,0,0,0,0,2,1.21,1.21,0,0,0,1.57-.15,1.24,1.24,0,0,0,0-1.75A1.2,1.2,0,0,0,141.62,116.69Zm0,8.27a1.2,1.2,0,0,0-.69.21,1.24,1.24,0,0,0-.55,1,1.24,1.24,0,0,0,1.24,1.24,1.21,1.21,0,0,0,.88-.37,1.24,1.24,0,0,0,0-1.75A1.2,1.2,0,0,0,141.62,125Zm0-33.09a1.24,1.24,0,0,0-1.24,1.24,1.24,1.24,0,0,0,.55,1A1.25,1.25,0,0,0,142.5,94a1.24,1.24,0,0,0,0-1.75A1.21,1.21,0,0,0,141.62,91.87Zm0-8.27a1.27,1.27,0,0,0-.69.21,1.25,1.25,0,0,0-.55,1,1.24,1.24,0,0,0,.55,1,1.2,1.2,0,0,0,.69.21A1.24,1.24,0,0,0,142.5,84,1.21,1.21,0,0,0,141.62,83.6Zm0,16.54a1.2,1.2,0,0,0-.69.22,1.23,1.23,0,0,0,0,2,1.25,1.25,0,0,0,1.57-.15,1.24,1.24,0,0,0,0-1.75A1.21,1.21,0,0,0,141.62,100.14Zm-4.13,70.47a1.24,1.24,0,1,0,1.24,1.24A1.24,1.24,0,0,0,137.49,170.61Zm0,16.54a1.24,1.24,0,1,0,1.24,1.24A1.24,1.24,0,0,0,137.49,187.15Zm0-66.33a1.24,1.24,0,1,0,1.24,1.24A1.24,1.24,0,0,0,137.49,120.82Zm0-16.54a1.24,1.24,0,0,0,0,2.48,1.24,1.24,0,0,0,0-2.48Zm0,24.81a1.24,1.24,0,1,0,1.24,1.24A1.24,1.24,0,0,0,137.49,129.09Zm0-33.08a1.24,1.24,0,0,0,0,2.48,1.24,1.24,0,0,0,0-2.48Zm0-8.27a1.24,1.24,0,0,0,0,2.48,1.24,1.24,0,1,0,0-2.48Zm0,24.81a1.24,1.24,0,1,0,1.24,1.24A1.24,1.24,0,0,0,137.49,112.55Zm4.13,20.68a1.2,1.2,0,0,0-.69.21,1.24,1.24,0,0,0-.55,1,1.25,1.25,0,0,0,.55,1,1.27,1.27,0,0,0,.69.21,1.21,1.21,0,0,0,.88-.37,1.24,1.24,0,0,0-.88-2.11Zm-4.13,45.65a1.24,1.24,0,1,0,1.24,1.24A1.24,1.24,0,0,0,137.49,178.88Zm0-16.54a1.24,1.24,0,1,0,1.24,1.24A1.24,1.24,0,0,0,137.49,162.34Zm0-8.44a1.24,1.24,0,1,0,1.24,1.24A1.24,1.24,0,0,0,137.49,153.9Zm0-8.27a1.24,1.24,0,1,0,1.24,1.24A1.24,1.24,0,0,0,137.49,145.63Zm0-8.27a1.24,1.24,0,1,0,1.24,1.24A1.24,1.24,0,0,0,137.49,137.36Zm8.27,0A1.24,1.24,0,1,0,147,138.6,1.24,1.24,0,0,0,145.76,137.36Zm0-16.54a1.24,1.24,0,1,0,1.24,1.24A1.24,1.24,0,0,0,145.76,120.82Zm0,8.27a1.24,1.24,0,1,0,1.24,1.24A1.24,1.24,0,0,0,145.76,129.09Zm0-16.54a1.24,1.24,0,1,0,1.24,1.24A1.24,1.24,0,0,0,145.76,112.55Zm0-16.54a1.24,1.24,0,1,0,0,2.48,1.24,1.24,0,1,0,0-2.48Zm0,8.27a1.24,1.24,0,0,0,0,2.48,1.24,1.24,0,1,0,0-2.48Zm-8.27-24.81a1.24,1.24,0,1,0,0,2.48,1.24,1.24,0,0,0,0-2.48Zm8.27,82.87a1.24,1.24,0,1,0,1.24,1.24A1.24,1.24,0,0,0,145.76,162.34Zm0,16.54a1.24,1.24,0,1,0,1.24,1.24A1.24,1.24,0,0,0,145.76,178.88Zm0-8.27a1.24,1.24,0,1,0,1.24,1.24A1.24,1.24,0,0,0,145.76,170.61Zm0,16.54a1.24,1.24,0,1,0,1.24,1.24A1.24,1.24,0,0,0,145.76,187.15Zm0-99.41a1.24,1.24,0,1,0,0,2.48,1.24,1.24,0,0,0,0-2.48Zm0,57.89a1.24,1.24,0,1,0,1.24,1.24A1.24,1.24,0,0,0,145.76,145.63Zm0,8.27a1.24,1.24,0,1,0,1.24,1.24A1.24,1.24,0,0,0,145.76,153.9Zm-4.14,70.47a1.27,1.27,0,0,0-.69.21,1.25,1.25,0,0,0-.55,1,1.24,1.24,0,0,0,.55,1,1.25,1.25,0,0,0,1.57-.15,1.24,1.24,0,0,0,0-1.75A1.21,1.21,0,0,0,141.62,224.37Zm0-57.89a1.27,1.27,0,0,0-.69.21,1.24,1.24,0,0,0-.55,1,1.25,1.25,0,0,0,.55,1,1.27,1.27,0,0,0,.69.21,1.24,1.24,0,0,0,.88-.36,1.26,1.26,0,0,0,0-1.76A1.24,1.24,0,0,0,141.62,166.48Zm0,8.27a1.27,1.27,0,0,0-.69.21,1.24,1.24,0,0,0-.55,1,1.29,1.29,0,0,0,.1.48,1.23,1.23,0,0,0,1.14.76,1.24,1.24,0,0,0,.88-.36,1.56,1.56,0,0,0,.27-.4,1.28,1.28,0,0,0-.27-1.36A1.24,1.24,0,0,0,141.62,174.75Zm0,8.27a1.27,1.27,0,0,0-.69.21,1.24,1.24,0,0,0,0,2.06,1.27,1.27,0,0,0,.69.21,1.24,1.24,0,0,0,.88-.36,1.26,1.26,0,0,0,0-1.76A1.24,1.24,0,0,0,141.62,183Zm0-33.25a1.27,1.27,0,0,0-.69.21,1.24,1.24,0,0,0-.55,1,1.25,1.25,0,0,0,.55,1,1.27,1.27,0,0,0,.69.21,1.24,1.24,0,0,0,.88-.36,1.26,1.26,0,0,0,0-1.76A1.24,1.24,0,0,0,141.62,149.77Zm0,8.44a1.27,1.27,0,0,0-.69.21,1.24,1.24,0,0,0-.55,1,1.25,1.25,0,0,0,.55,1,1.27,1.27,0,0,0,.69.21,1.21,1.21,0,0,0,.88-.37,1.23,1.23,0,0,0,.36-.87,1.27,1.27,0,0,0-.36-.88A1.24,1.24,0,0,0,141.62,158.21Zm0,33.08a1.27,1.27,0,0,0-.69.21,1.24,1.24,0,0,0,0,2.06,1.27,1.27,0,0,0,.69.21,1.24,1.24,0,0,0,.88-.36,1.26,1.26,0,0,0,0-1.76A1.24,1.24,0,0,0,141.62,191.29Zm4.14-128.36a1.24,1.24,0,1,0,0,2.48,1.24,1.24,0,1,0,0-2.48Zm0,8.27a1.24,1.24,0,0,0,0,2.48,1.24,1.24,0,1,0,0-2.48Zm0,8.27a1.24,1.24,0,0,0,0,2.48,1.24,1.24,0,1,0,0-2.48Zm-91,8.27A1.24,1.24,0,1,0,56,89,1.24,1.24,0,0,0,54.78,87.74Zm86.84,120.09a1.27,1.27,0,0,0-.69.21,1.25,1.25,0,0,0-.55,1,1.24,1.24,0,0,0,.55,1,1.27,1.27,0,0,0,.69.21,1.24,1.24,0,0,0,.88-.36,1.26,1.26,0,0,0,0-1.76A1.24,1.24,0,0,0,141.62,207.83Zm0,8.27a1.27,1.27,0,0,0-.69.21,1.25,1.25,0,0,0-.55,1,1.24,1.24,0,0,0,.55,1,1.27,1.27,0,0,0,.69.21,1.23,1.23,0,0,0,1.24-1.24,1.27,1.27,0,0,0-.36-.88A1.24,1.24,0,0,0,141.62,216.1Zm0-16.54a1.27,1.27,0,0,0-.69.21,1.25,1.25,0,0,0-.55,1,1.24,1.24,0,0,0,.55,1,1.27,1.27,0,0,0,.69.21,1.24,1.24,0,0,0,.88-.36,1.26,1.26,0,0,0,0-1.76A1.24,1.24,0,0,0,141.62,199.56Zm-4.13-4.13a1.24,1.24,0,0,0,0,2.48,1.24,1.24,0,0,0,0-2.48Zm-8.27-82.88a1.24,1.24,0,1,0,1.24,1.24A1.24,1.24,0,0,0,129.22,112.55Zm0,8.27a1.24,1.24,0,1,0,1.24,1.24A1.24,1.24,0,0,0,129.22,120.82Zm0,8.27a1.24,1.24,0,1,0,1.24,1.24A1.24,1.24,0,0,0,129.22,129.09Zm0-24.81a1.24,1.24,0,1,0,0,2.48,1.24,1.24,0,1,0,0-2.48Zm0,33.08a1.24,1.24,0,1,0,1.24,1.24A1.24,1.24,0,0,0,129.22,137.36Zm0-41.35a1.24,1.24,0,0,0,0,2.48,1.24,1.24,0,1,0,0-2.48Zm0,57.89a1.24,1.24,0,1,0,1.24,1.24A1.24,1.24,0,0,0,129.22,153.9Zm0,25a1.24,1.24,0,1,0,1.24,1.24A1.24,1.24,0,0,0,129.22,178.88Zm0-33.25a1.24,1.24,0,1,0,1.24,1.24A1.24,1.24,0,0,0,129.22,145.63Zm0,41.52a1.24,1.24,0,1,0,1.24,1.24A1.24,1.24,0,0,0,129.22,187.15Zm0-16.54a1.24,1.24,0,1,0,1.24,1.24A1.24,1.24,0,0,0,129.22,170.61Zm8.27-107.68a1.24,1.24,0,0,0,0,2.48,1.24,1.24,0,1,0,0-2.48Zm-8.27,24.81a1.24,1.24,0,0,0,0,2.48,1.24,1.24,0,0,0,0-2.48ZM75.46,216.1a1.23,1.23,0,0,0-1.14.76,1.38,1.38,0,0,0-.08.27c.67.39,1.35.77,2,1.14a1.21,1.21,0,0,0,.43-.93A1.25,1.25,0,0,0,75.46,216.1ZM54.78,195.43A1.24,1.24,0,1,0,56,196.67,1.24,1.24,0,0,0,54.78,195.43Zm0-132.5A1.24,1.24,0,1,0,56,64.17,1.24,1.24,0,0,0,54.78,62.93Zm74.44,16.54a1.24,1.24,0,1,0,0,2.48,1.24,1.24,0,1,0,0-2.48ZM92,224.37a1.27,1.27,0,0,0-1,.51c.74.27,1.49.52,2.24.77v0A1.25,1.25,0,0,0,92,224.37ZM54.78,71.2A1.24,1.24,0,1,0,56,72.44,1.24,1.24,0,0,0,54.78,71.2Zm0,8.27A1.24,1.24,0,1,0,56,80.71,1.24,1.24,0,0,0,54.78,79.47Zm74.44,116a1.24,1.24,0,1,0,0,2.48,1.24,1.24,0,1,0,0-2.48Zm0,33.08a1.23,1.23,0,0,0-.8,2.18l1.68-.07a1.24,1.24,0,0,0-.88-2.11Zm0-157.31a1.24,1.24,0,1,0,0,2.48,1.24,1.24,0,1,0,0-2.48Zm0-8.27a1.24,1.24,0,1,0,0,2.48,1.24,1.24,0,1,0,0-2.48ZM112.68,228.51a1.23,1.23,0,0,0-1.24,1.24v.08c.8.11,1.61.21,2.41.3a1.22,1.22,0,0,0,.07-.38A1.24,1.24,0,0,0,112.68,228.51Zm8.27,0a1.24,1.24,0,0,0-.88,2.11l1.68.07a1.26,1.26,0,0,0,.44-.94A1.24,1.24,0,0,0,121,228.51Zm-16.89.05,1.13.24a1.19,1.19,0,0,0-.78-.29A1.29,1.29,0,0,0,104.06,228.56Zm25.16-66.22a1.24,1.24,0,1,0,1.24,1.24A1.24,1.24,0,0,0,129.22,162.34Zm4.13,4.14a1.24,1.24,0,1,0,1.24,1.24A1.24,1.24,0,0,0,133.35,166.48Zm0,8.27a1.24,1.24,0,0,0-1.24,1.24,1.29,1.29,0,0,0,.1.48,1.24,1.24,0,0,0,2.29,0,1.28,1.28,0,0,0,.09-.48A1.23,1.23,0,0,0,133.35,174.75Zm0,8.27a1.24,1.24,0,1,0,1.24,1.24A1.24,1.24,0,0,0,133.35,183Zm0-24.81a1.24,1.24,0,1,0,1.24,1.24A1.24,1.24,0,0,0,133.35,158.21Zm0-16.71a1.24,1.24,0,0,0-1.24,1.24,1.07,1.07,0,0,0,0,.25,1.23,1.23,0,0,0,1.21,1,1.25,1.25,0,0,0,1.22-1,1.06,1.06,0,0,0,0-.25A1.23,1.23,0,0,0,133.35,141.5Zm0,49.79a1.24,1.24,0,1,0,1.24,1.24A1.24,1.24,0,0,0,133.35,191.29Zm0-41.52a1.24,1.24,0,1,0,1.24,1.24A1.24,1.24,0,0,0,133.35,149.77Zm0,74.6a1.24,1.24,0,0,0,0,2.48,1.24,1.24,0,0,0,0-2.48Zm4.14,4.14a1.23,1.23,0,0,0-1.24,1.24,1.21,1.21,0,0,0,.06.38c.81-.09,1.61-.19,2.41-.3,0,0,0-.05,0-.08A1.24,1.24,0,0,0,137.49,228.51Zm-4.14-28.95a1.24,1.24,0,0,0,0,2.48,1.24,1.24,0,0,0,0-2.48ZM137.49,71.2a1.24,1.24,0,1,0,0,2.48,1.24,1.24,0,0,0,0-2.48Zm-4.14,136.63a1.24,1.24,0,1,0,0,2.48,1.24,1.24,0,1,0,0-2.48Zm0,8.27a1.24,1.24,0,1,0,0,2.48,1.24,1.24,0,0,0,0-2.48Zm0-82.87a1.24,1.24,0,1,0,1.24,1.24A1.24,1.24,0,0,0,133.35,133.23Zm0-74.44a1.24,1.24,0,0,0,0,2.48,1.24,1.24,0,1,0,0-2.48Zm0,8.27a1.24,1.24,0,0,0,0,2.48,1.24,1.24,0,1,0,0-2.48Zm0,8.27a1.24,1.24,0,0,0,0,2.48,1.24,1.24,0,1,0,0-2.48Zm-4.13,144.91a1.24,1.24,0,1,0,0,2.48,1.24,1.24,0,1,0,0-2.48ZM133.35,83.6a1.24,1.24,0,1,0,0,2.48,1.24,1.24,0,0,0,0-2.48ZM129.22,212a1.24,1.24,0,0,0,0,2.48,1.24,1.24,0,0,0,0-2.48Zm4.13-87a1.24,1.24,0,1,0,1.24,1.24A1.24,1.24,0,0,0,133.35,125Zm0-8.27a1.24,1.24,0,1,0,1.24,1.24A1.24,1.24,0,0,0,133.35,116.69Zm0-24.82a1.24,1.24,0,1,0,0,2.48,1.24,1.24,0,1,0,0-2.48ZM129.22,203.7a1.24,1.24,0,1,0,0,2.48,1.24,1.24,0,0,0,0-2.48Zm4.13-103.56a1.24,1.24,0,0,0,0,2.48,1.24,1.24,0,1,0,0-2.48Zm0,8.27a1.25,1.25,0,1,0,1.24,1.24A1.25,1.25,0,0,0,133.35,108.41Zm24.81-33.08-.25,0a1.23,1.23,0,0,0-1,1.21,1.25,1.25,0,0,0,1,1.22l.25,0a1.25,1.25,0,0,0,1.15-.75,1.34,1.34,0,0,0,.1-.49,1.29,1.29,0,0,0-.1-.48A1.24,1.24,0,0,0,158.16,75.33Zm4.14,45.49a1.24,1.24,0,1,0,1.24,1.24A1.24,1.24,0,0,0,162.3,120.82Zm0,74.61a1.24,1.24,0,0,0,0,2.48,1.24,1.24,0,0,0,0-2.48Zm0-82.88a1.24,1.24,0,1,0,1.24,1.24A1.24,1.24,0,0,0,162.3,112.55Zm0-8.27a1.24,1.24,0,1,0,0,2.48,1.24,1.24,0,0,0,0-2.48Zm0-8.27a1.24,1.24,0,0,0,0,2.48,1.24,1.24,0,0,0,0-2.48Zm0,41.35a1.24,1.24,0,1,0,1.24,1.24A1.24,1.24,0,0,0,162.3,137.36Zm0,16.54a1.24,1.24,0,1,0,1.24,1.24A1.24,1.24,0,0,0,162.3,153.9Zm0,16.71a1.24,1.24,0,1,0,1.24,1.24A1.24,1.24,0,0,0,162.3,170.61Zm0-25a1.24,1.24,0,1,0,1.24,1.24A1.24,1.24,0,0,0,162.3,145.63Zm0,41.52a1.24,1.24,0,1,0,1.24,1.24A1.24,1.24,0,0,0,162.3,187.15Zm0-8.27a1.24,1.24,0,1,0,1.24,1.24A1.24,1.24,0,0,0,162.3,178.88Zm0-91.14a1.24,1.24,0,0,0,0,2.48,1.24,1.24,0,1,0,0-2.48Zm0,74.6a1.24,1.24,0,1,0,1.24,1.24A1.24,1.24,0,0,0,162.3,162.34Zm0-33.25a1.24,1.24,0,1,0,1.24,1.24A1.24,1.24,0,0,0,162.3,129.09Zm-4.14,37.39-.25,0a1.25,1.25,0,0,0-1,1.22,1.23,1.23,0,0,0,1,1.21l.25,0a1.24,1.24,0,0,0,1.15-.76,1.29,1.29,0,0,0,.1-.48,1.25,1.25,0,0,0-1.25-1.24Zm0,8.27-.25,0a1.25,1.25,0,0,0-1,1.22,1.29,1.29,0,0,0,.1.48,1.24,1.24,0,0,0,.89.73l.25,0a1.24,1.24,0,0,0,1.15-.76,1.29,1.29,0,0,0,.1-.48,1.25,1.25,0,0,0-1.25-1.24Zm0-16.54-.25,0a1.25,1.25,0,0,0-1,1.22,1.23,1.23,0,0,0,1,1.21l.25,0a1.24,1.24,0,0,0,1.15-.76,1.29,1.29,0,0,0,.1-.48,1.34,1.34,0,0,0-.1-.49A1.25,1.25,0,0,0,158.16,158.21Zm0-16.71-.25,0a1.25,1.25,0,0,0-1,1.22,1.07,1.07,0,0,0,0,.25,1.24,1.24,0,0,0,1,1l.25,0a1.24,1.24,0,0,0,1.15-.76,1.55,1.55,0,0,0,.07-.23,1.07,1.07,0,0,0,0-.25,1.34,1.34,0,0,0-.1-.49A1.25,1.25,0,0,0,158.16,141.5Zm0,8.27-.25,0a1.25,1.25,0,0,0-1,1.22,1.23,1.23,0,0,0,1,1.21l.25,0a1.24,1.24,0,0,0,1.15-.76,1.29,1.29,0,0,0,.1-.48,1.25,1.25,0,0,0-1.25-1.24Zm0,33.25-.25,0a1.25,1.25,0,0,0-1,1.22,1.23,1.23,0,0,0,1,1.21l.25,0a1.24,1.24,0,0,0,1.15-.76,1.29,1.29,0,0,0,.1-.48,1.25,1.25,0,0,0-1.25-1.24Zm0,24.81-.25,0a1.23,1.23,0,0,0-1,1.21,1.25,1.25,0,0,0,1,1.22l.25,0a1.25,1.25,0,0,0,1.25-1.24,1.29,1.29,0,0,0-.1-.48A1.24,1.24,0,0,0,158.16,207.83Zm0-16.54-.25,0a1.25,1.25,0,0,0,0,2.44l.25,0a1.24,1.24,0,0,0,1.15-.76,1.2,1.2,0,0,0,0-1A1.24,1.24,0,0,0,158.16,191.29ZM162.3,62.93a1.24,1.24,0,0,0,0,2.48,1.24,1.24,0,1,0,0-2.48ZM158.16,216.1l-.25,0a1.23,1.23,0,0,0-1,1.21,1.25,1.25,0,0,0,1,1.22l.25,0a1.25,1.25,0,0,0,1.15-.75,1.34,1.34,0,0,0,.1-.49,1.29,1.29,0,0,0-.1-.48A1.24,1.24,0,0,0,158.16,216.1ZM162.3,71.2a1.24,1.24,0,1,0,0,2.48,1.24,1.24,0,0,0,0-2.48Zm-4.14,128.36-.25,0a1.23,1.23,0,0,0-1,1.21,1.25,1.25,0,0,0,1,1.22l.25,0a1.25,1.25,0,0,0,1.25-1.24,1.29,1.29,0,0,0-.1-.48A1.24,1.24,0,0,0,158.16,199.56ZM162.3,79.47a1.24,1.24,0,1,0,0,2.48,1.24,1.24,0,0,0,0-2.48Zm4.14,4.13a1.24,1.24,0,1,0,1.24,1.24A1.25,1.25,0,0,0,166.44,83.6Zm0,91.15a1.24,1.24,0,0,0-1.25,1.24,1.29,1.29,0,0,0,.1.48,1.24,1.24,0,0,0,2.29,0,1.29,1.29,0,0,0,.1-.48A1.24,1.24,0,0,0,166.44,174.75Zm0,8.27a1.24,1.24,0,1,0,1.24,1.24A1.24,1.24,0,0,0,166.44,183Zm0-33.25a1.24,1.24,0,1,0,1.24,1.24A1.24,1.24,0,0,0,166.44,149.77Zm0,8.44a1.24,1.24,0,1,0,1.24,1.24A1.24,1.24,0,0,0,166.44,158.21Zm0,41.35a1.24,1.24,0,1,0,1.24,1.24A1.25,1.25,0,0,0,166.44,199.56Zm0-33.08a1.24,1.24,0,1,0,1.24,1.24A1.24,1.24,0,0,0,166.44,166.48Zm0,24.81a1.24,1.24,0,1,0,1.24,1.24A1.24,1.24,0,0,0,166.44,191.29Zm0,16.54a1.24,1.24,0,1,0,1.24,1.24A1.25,1.25,0,0,0,166.44,207.83Zm4.13-120.09A1.24,1.24,0,1,0,171.81,89,1.24,1.24,0,0,0,170.57,87.74Zm0-24.81a1.24,1.24,0,1,0,1.24,1.24A1.24,1.24,0,0,0,170.57,62.93Zm0,16.54a1.24,1.24,0,1,0,1.24,1.24A1.24,1.24,0,0,0,170.57,79.47ZM166.44,216.1a1.24,1.24,0,1,0,1.24,1.24A1.25,1.25,0,0,0,166.44,216.1Zm4.13-144.9a1.24,1.24,0,1,0,1.24,1.24A1.24,1.24,0,0,0,170.57,71.2Zm-4.13-4.14a1.24,1.24,0,1,0,1.24,1.24A1.25,1.25,0,0,0,166.44,67.06Zm0-8.27A1.24,1.24,0,1,0,167.68,60,1.25,1.25,0,0,0,166.44,58.79ZM145.76,203.7a1.24,1.24,0,1,0,0,2.48,1.24,1.24,0,0,0,0-2.48Zm16.54,0a1.24,1.24,0,0,0,0,2.48,1.24,1.24,0,0,0,0-2.48Zm-4.14-70.47-.25,0a1.25,1.25,0,0,0-1,1.22,1.23,1.23,0,0,0,1,1.21l.25,0a1.24,1.24,0,0,0,1.15-.76,1.29,1.29,0,0,0,.1-.48,1.34,1.34,0,0,0-.1-.49A1.25,1.25,0,0,0,158.16,133.23Zm4.14,87a1.24,1.24,0,0,0,0,2.48,1.24,1.24,0,0,0,0-2.48Zm0-8.27a1.24,1.24,0,0,0,0,2.48,1.24,1.24,0,0,0,0-2.48Zm4.14-111.83a1.24,1.24,0,1,0,1.24,1.24A1.25,1.25,0,0,0,166.44,100.14Zm0,24.82a1.24,1.24,0,1,0,1.24,1.24A1.24,1.24,0,0,0,166.44,125Zm0,8.27a1.24,1.24,0,1,0,1.24,1.24A1.24,1.24,0,0,0,166.44,133.23Zm0-16.54a1.24,1.24,0,1,0,1.24,1.24A1.24,1.24,0,0,0,166.44,116.69Zm0-24.82a1.24,1.24,0,1,0,1.24,1.24A1.25,1.25,0,0,0,166.44,91.87Zm0,16.54a1.25,1.25,0,1,0,1.24,1.24A1.25,1.25,0,0,0,166.44,108.41Zm0,33.09a1.24,1.24,0,0,0-1.25,1.24,1.07,1.07,0,0,0,0,.25,1.24,1.24,0,0,0,2.43,0,1.07,1.07,0,0,0,0-.25A1.24,1.24,0,0,0,166.44,141.5Zm0-66.17a1.24,1.24,0,1,0,1.24,1.24A1.25,1.25,0,0,0,166.44,75.33ZM149.89,141.5a1.24,1.24,0,0,0-1.24,1.24,1.07,1.07,0,0,0,0,.25,1.23,1.23,0,0,0,1.21,1,1.25,1.25,0,0,0,1.22-1,1.06,1.06,0,0,0,0-.25A1.23,1.23,0,0,0,149.89,141.5Zm0,33.25a1.24,1.24,0,0,0-1.24,1.24,1.29,1.29,0,0,0,.1.48,1.24,1.24,0,0,0,2.29,0,1.28,1.28,0,0,0,.09-.48A1.23,1.23,0,0,0,149.89,174.75Zm0,8.27a1.24,1.24,0,1,0,1.24,1.24A1.24,1.24,0,0,0,149.89,183Zm0,8.27a1.24,1.24,0,1,0,1.24,1.24A1.24,1.24,0,0,0,149.89,191.29ZM154,79.47A1.24,1.24,0,1,0,154,82a1.24,1.24,0,1,0,0-2.48Zm-4.14,78.74a1.24,1.24,0,1,0,1.24,1.24A1.24,1.24,0,0,0,149.89,158.21Zm0,8.27a1.24,1.24,0,1,0,1.24,1.24A1.24,1.24,0,0,0,149.89,166.48ZM154,71.2a1.24,1.24,0,1,0,0,2.48,1.24,1.24,0,1,0,0-2.48Zm-4.14,153.17a1.24,1.24,0,0,0,0,2.48,1.24,1.24,0,0,0,0-2.48ZM154,62.93a1.24,1.24,0,0,0,0,2.48,1.24,1.24,0,1,0,0-2.48Zm-4.14,144.9a1.24,1.24,0,1,0,0,2.48,1.24,1.24,0,1,0,0-2.48Zm0,8.27a1.24,1.24,0,1,0,0,2.48,1.24,1.24,0,0,0,0-2.48Zm0-16.54a1.24,1.24,0,1,0,0,2.48,1.24,1.24,0,1,0,0-2.48Zm0-49.79a1.24,1.24,0,1,0,1.24,1.24A1.24,1.24,0,0,0,149.89,149.77Zm0-82.71a1.24,1.24,0,0,0,0,2.48,1.24,1.24,0,1,0,0-2.48Zm0,8.27a1.24,1.24,0,0,0,0,2.48,1.24,1.24,0,1,0,0-2.48ZM145,228.8l1.14-.24a1.34,1.34,0,0,0-.35-.05A1.24,1.24,0,0,0,145,228.8Zm4.92-170a1.24,1.24,0,0,0,0,2.48,1.24,1.24,0,1,0,0-2.48ZM145.76,212a1.24,1.24,0,0,0,0,2.48,1.24,1.24,0,0,0,0-2.48Zm0,8.27a1.24,1.24,0,1,0,0,2.48,1.24,1.24,0,1,0,0-2.48Zm4.13-111.83a1.25,1.25,0,1,0,1.24,1.24A1.25,1.25,0,0,0,149.89,108.41Zm0,8.28a1.24,1.24,0,1,0,1.24,1.24A1.24,1.24,0,0,0,149.89,116.69Zm0,16.54a1.24,1.24,0,1,0,1.24,1.24A1.24,1.24,0,0,0,149.89,133.23Zm0-49.63a1.24,1.24,0,1,0,0,2.48,1.24,1.24,0,0,0,0-2.48Zm0,41.36a1.24,1.24,0,1,0,1.24,1.24A1.24,1.24,0,0,0,149.89,125Zm0-33.09a1.24,1.24,0,1,0,0,2.48,1.24,1.24,0,1,0,0-2.48Zm0,8.27a1.24,1.24,0,0,0,0,2.48,1.24,1.24,0,1,0,0-2.48ZM154,87.74a1.24,1.24,0,0,0,0,2.48,1.24,1.24,0,0,0,0-2.48Zm4.13,136.63-.25,0a1.23,1.23,0,0,0-1,1.21s0,0,0,0c.75-.24,1.49-.5,2.23-.76A1.24,1.24,0,0,0,158.16,224.37ZM154,220.24a1.24,1.24,0,1,0,0,2.48,1.24,1.24,0,1,0,0-2.48Zm4.13-153.18-.25,0a1.23,1.23,0,0,0-1,1.21,1.25,1.25,0,0,0,1,1.22l.25,0a1.25,1.25,0,0,0,1.25-1.24,1.29,1.29,0,0,0-.1-.48A1.24,1.24,0,0,0,158.16,67.06Zm0,57.9a1.1,1.1,0,0,0-.25,0,1.25,1.25,0,0,0-1,1.22,1.23,1.23,0,0,0,1,1.21l.25,0a1.24,1.24,0,0,0,1.15-.76,1.29,1.29,0,0,0,.1-.48,1.34,1.34,0,0,0-.1-.49A1.25,1.25,0,0,0,158.16,125ZM154,212a1.24,1.24,0,0,0,0,2.48,1.24,1.24,0,1,0,0-2.48Zm4.13-153.18-.25,0a1.23,1.23,0,0,0-1,1.21,1.25,1.25,0,0,0,1,1.22l.25,0A1.25,1.25,0,0,0,159.41,60a1.29,1.29,0,0,0-.1-.48A1.24,1.24,0,0,0,158.16,58.79Zm0,41.35-.25,0a1.23,1.23,0,0,0-1,1.21,1.25,1.25,0,0,0,1,1.22,1.1,1.1,0,0,0,.25,0,1.25,1.25,0,0,0,1.15-.75,1.23,1.23,0,0,0,0-1A1.26,1.26,0,0,0,158.16,100.14Zm0,8.27-.25,0a1.24,1.24,0,0,0,0,2.43l.25,0a1.26,1.26,0,0,0,1.15-.76,1.23,1.23,0,0,0,0-1A1.26,1.26,0,0,0,158.16,108.41Zm0,8.28a1.1,1.1,0,0,0-.25,0,1.25,1.25,0,0,0-1,1.22,1.23,1.23,0,0,0,1,1.21l.25,0a1.26,1.26,0,0,0,1.15-.76,1.23,1.23,0,0,0,0-1A1.25,1.25,0,0,0,158.16,116.69ZM170.57,96a1.24,1.24,0,1,0,1.24,1.24A1.24,1.24,0,0,0,170.57,96ZM154,195.43a1.24,1.24,0,0,0,0,2.48,1.24,1.24,0,1,0,0-2.48Zm4.13-103.56-.25,0a1.23,1.23,0,0,0-1,1.21,1.25,1.25,0,0,0,1,1.22,1.1,1.1,0,0,0,.25,0,1.25,1.25,0,0,0,1.15-.75,1.34,1.34,0,0,0,.1-.49,1.29,1.29,0,0,0-.1-.48A1.26,1.26,0,0,0,158.16,91.87Zm0-8.27-.25,0a1.23,1.23,0,0,0-1,1.21,1.25,1.25,0,0,0,1,1.22l.25,0a1.25,1.25,0,0,0,1.15-.75,1.34,1.34,0,0,0,.1-.49,1.29,1.29,0,0,0-.1-.48A1.24,1.24,0,0,0,158.16,83.6ZM154,203.7a1.24,1.24,0,0,0,0,2.48,1.24,1.24,0,1,0,0-2.48Zm0-66.34a1.24,1.24,0,1,0,1.24,1.24A1.24,1.24,0,0,0,154,137.36Zm0-16.54a1.24,1.24,0,1,0,1.24,1.24A1.24,1.24,0,0,0,154,120.82Zm0,8.27a1.24,1.24,0,1,0,1.24,1.24A1.24,1.24,0,0,0,154,129.09Zm0-16.54a1.24,1.24,0,1,0,1.24,1.24A1.24,1.24,0,0,0,154,112.55Zm0-8.27a1.24,1.24,0,1,0,0,2.48,1.24,1.24,0,1,0,0-2.48ZM154,96a1.24,1.24,0,0,0,0,2.48A1.24,1.24,0,1,0,154,96Zm0,66.33a1.24,1.24,0,1,0,1.24,1.24A1.24,1.24,0,0,0,154,162.34Zm0,8.27a1.24,1.24,0,1,0,1.24,1.24A1.24,1.24,0,0,0,154,170.61Zm0,8.27a1.24,1.24,0,1,0,1.24,1.24A1.24,1.24,0,0,0,154,178.88Zm0,8.27a1.24,1.24,0,1,0,1.24,1.24A1.24,1.24,0,0,0,154,187.15Zm0-41.52a1.24,1.24,0,1,0,1.24,1.24A1.24,1.24,0,0,0,154,145.63Zm0,8.27a1.24,1.24,0,1,0,1.24,1.24A1.24,1.24,0,0,0,154,153.9Z"/><line class="cls-3" x1="234.91" y1="200.88" x2="227.88" y2="200.88"/><line class="cls-3" x1="217.18" y1="200.88" x2="210.15" y2="200.88"/><line class="cls-3" x1="222.53" y1="188.5" x2="222.53" y2="195.53"/><line class="cls-3" x1="222.53" y1="206.23" x2="222.53" y2="213.26"/><line class="cls-3" x1="217.79" y1="13.15" x2="214.18" y2="13.15"/><line class="cls-3" x1="206.12" y1="13.15" x2="202.51" y2="13.15"/><line class="cls-3" x1="210.15" y1="5.51" x2="210.15" y2="9.12"/><line class="cls-3" x1="210.15" y1="17.19" x2="210.15" y2="20.79"/><circle class="cls-4" cx="125.08" cy="111.97" r="100.66"/><circle class="cls-5" cx="125.08" cy="102.8" r="100.66"/><path class="cls-6" d="M105.54,105.13h33.58a14.81,14.81,0,0,1,14.81,14.81h0a14.81,14.81,0,0,1-14.81,14.81H94"/><path class="cls-6" d="M94,75.51h39.05a14.81,14.81,0,0,1,14.81,14.81h0a14.81,14.81,0,0,1-14.81,14.81H105.54"/><line class="cls-6" x1="105.54" y1="64.14" x2="105.54" y2="146.39"/><line class="cls-6" x1="123.98" y1="134.75" x2="123.98" y2="146.39"/><line class="cls-6" x1="123.98" y1="63.88" x2="123.98" y2="75.51"/><path class="cls-5" d="M32.06,28.37Q29.89,31.12,27.87,34"/><path class="cls-5" d="M240.59,144.06a119.06,119.06,0,0,0,3.13-27.22"/><path class="cls-5" d="M7.14,129.75a116.89,116.89,0,0,0,3.3,17.74"/><path class="cls-5" d="M21.4,44.3A118.07,118.07,0,0,0,6.44,102v14.83c0,.7,0,1.39,0,2.08"/><path class="cls-1" d="M242.15,71.37a3.42,3.42,0,1,1-3.41,3.41,3.42,3.42,0,0,1,3.41-3.41m0-3.23a6.65,6.65,0,1,0,6.65,6.64,6.65,6.65,0,0,0-6.65-6.64Z"/><path class="cls-1" d="M6.64,121a3.42,3.42,0,1,1-3.42,3.42A3.42,3.42,0,0,1,6.64,121m0-3.23a6.65,6.65,0,1,0,6.64,6.65,6.65,6.65,0,0,0-6.64-6.65Z"/></g></g></svg>