<svg width="35" height="34" viewBox="0 0 35 34" fill="none" xmlns="http://www.w3.org/2000/svg">
<path d="M17.5872 13.8789C15.9053 13.8789 14.5117 15.2579 14.5117 16.9757C14.5117 18.6934 15.8813 20.0725 17.5872 20.0725C19.2932 20.0725 20.6627 18.6692 20.6627 16.9757C20.6627 15.2821 19.2691 13.8789 17.5872 13.8789ZM17.5872 18.9596C16.506 18.9596 15.617 18.0644 15.617 16.9757C15.617 15.887 16.506 14.9918 17.5872 14.9918C18.6685 14.9918 19.5575 15.887 19.5575 16.9757C19.5575 18.0644 18.6685 18.9596 17.5872 18.9596Z" fill="white"/>
<path d="M20.7827 14.5077C21.1676 14.5077 21.4795 14.1936 21.4795 13.8061C21.4795 13.4186 21.1676 13.1045 20.7827 13.1045C20.3979 13.1045 20.0859 13.4186 20.0859 13.8061C20.0859 14.1936 20.3979 14.5077 20.7827 14.5077Z" fill="white"/>
<path d="M22.5854 11.9919C21.9607 11.3387 21.0717 11 20.0625 11H15.1129C13.0225 11 11.6289 12.4032 11.6289 14.5081V19.4677C11.6289 20.5081 11.9653 21.4032 12.6381 22.0565C13.2868 22.6855 14.1518 23 15.1369 23H20.0385C21.0717 23 21.9367 22.6613 22.5614 22.0565C23.2101 21.4274 23.5465 20.5323 23.5465 19.4919V14.5081C23.5465 13.4919 23.2101 12.621 22.5854 11.9919ZM22.4893 19.4919C22.4893 20.2419 22.225 20.8468 21.7925 21.2581C21.36 21.6694 20.7593 21.8871 20.0385 21.8871H15.1369C14.4161 21.8871 13.8154 21.6694 13.3829 21.2581C12.9504 20.8226 12.7342 20.2177 12.7342 19.4677V14.5081C12.7342 13.7823 12.9504 13.1774 13.3829 12.7419C13.7914 12.3306 14.4161 12.1129 15.1369 12.1129H20.0865C20.8074 12.1129 21.4081 12.3306 21.8405 12.7661C22.249 13.2016 22.4893 13.8065 22.4893 14.5081V19.4919Z" fill="white"/>
<path d="M33.9701 17C33.9701 26.1165 26.6403 33.5 17.6071 33.5C8.5739 33.5 1.24414 26.1165 1.24414 17C1.24414 7.88348 8.5739 0.5 17.6071 0.5C26.6403 0.5 33.9701 7.88348 33.9701 17Z" stroke="white"/>
</svg>
