<svg width="35" height="34" viewBox="0 0 35 34" fill="none" xmlns="http://www.w3.org/2000/svg">
<path d="M33.9701 17C33.9701 26.1165 26.6403 33.5 17.6071 33.5C8.5739 33.5 1.24414 26.1165 1.24414 17C1.24414 7.88348 8.5739 0.5 17.6071 0.5C26.6403 0.5 33.9701 7.88348 33.9701 17Z" stroke="white"/>
<path d="M23.9047 18.1243V22.6201H21.2983V18.4254C21.2983 17.3716 20.9213 16.6525 19.9779 16.6525C19.2577 16.6525 18.8291 17.1372 18.6406 17.606C18.5718 17.7736 18.5541 18.0068 18.5541 18.2415V22.6201H15.9468C15.9468 22.6201 15.9819 15.5156 15.9468 14.7796H18.5538V15.8909C18.5486 15.8992 18.5417 15.9082 18.5367 15.9163H18.5538V15.8909C18.9002 15.3574 19.5188 14.5954 20.9034 14.5954C22.6188 14.5953 23.9047 15.716 23.9047 18.1243ZM13.2195 11C12.3275 11 11.7441 11.585 11.7441 12.3544C11.7441 13.107 12.3107 13.7098 13.1849 13.7098H13.2023C14.1115 13.7098 14.677 13.1071 14.677 12.3544C14.6598 11.585 14.1115 11 13.2195 11ZM11.899 22.6201H14.5053V14.7796H11.899V22.6201Z" fill="white"/>
</svg>
