<svg width="71" height="32" viewBox="0 0 71 32" fill="none" xmlns="http://www.w3.org/2000/svg">
<path d="M5.42704 11.1765H5.47189C6.50347 9.39165 8.29754 8.62671 10.4056 8.62671H11.4371V13.5563C10.6747 13.1739 9.95704 13.0889 9.14972 13.0889C6.14466 13.0889 5.38219 14.9587 5.38219 17.466V23.2881H0V8.7967H5.42704V11.1765Z" fill="#6D07E6"/>
<path d="M19.6888 8.79688H14.2617V23.2882H19.6888V8.79688Z" fill="#6D07E6"/>
<path d="M29.1966 10.4542H29.2414C30.2282 9.00929 32.0671 8.32935 33.8611 8.32935C38.436 8.32935 41.5756 11.9416 41.5756 16.1062C41.5756 20.2709 38.436 23.7981 33.906 23.7981C32.1568 23.7981 30.3179 23.2032 29.1517 21.9283V29.8752L23.7695 32V8.79681H29.1966V10.4542ZM29.0172 16.0637C29.0172 17.8911 30.3179 19.2935 32.5156 19.2935C34.7133 19.2935 36.014 17.8911 36.014 16.0637C36.014 14.2789 34.7133 12.7915 32.5156 12.7915C30.273 12.7915 29.0172 14.2789 29.0172 16.0637Z" fill="#6D07E6"/>
<path d="M49.8763 8.79688H44.4492V23.2882H49.8763V8.79688Z" fill="#6D07E6"/>
<path d="M70.9985 16.0637C70.9985 20.9934 66.6928 23.7556 61.8039 23.7556C56.9151 23.7556 52.6094 20.9934 52.6094 16.0637C52.6094 11.1341 56.9151 8.32935 61.8039 8.32935C66.7376 8.32935 70.9985 11.1341 70.9985 16.0637ZM58.3504 16.0637C58.3504 17.8911 59.6511 19.2935 61.8488 19.2935C64.0465 19.2935 65.3472 17.8911 65.3472 16.0637C65.3472 14.2789 64.0465 12.7915 61.8488 12.7915C59.6062 12.7915 58.3504 14.2789 58.3504 16.0637Z" fill="#6D07E6"/>
<path d="M19.6909 4.80212L14.3984 6.79947V2.03984L19.6909 0V4.80212Z" fill="#6D07E6"/>
<path d="M49.8316 4.80212L44.5391 6.79947V2.03984L49.8316 0V4.80212Z" fill="#6D07E6"/>
</svg>
