<svg width="67" height="32" viewBox="0 0 67 32" fill="none" xmlns="http://www.w3.org/2000/svg">
<g clip-path="url(#clip0)">
<path d="M5.12129 11.1768H5.16361C6.13708 9.39189 7.83007 8.62695 9.81933 8.62695H10.7928V13.5566C10.0733 13.1741 9.39608 13.0891 8.63424 13.0891C5.79848 13.0891 5.07896 14.959 5.07896 17.4663V23.2883H0V8.79694H5.12129V11.1768Z" fill="white"/>
<path d="M18.5803 8.79688H13.459V23.2882H18.5803V8.79688Z" fill="white"/>
<path d="M27.5529 10.4544H27.5953C28.5264 9.00954 30.2617 8.32959 31.9547 8.32959C36.2718 8.32959 39.2345 11.9418 39.2345 16.1065C39.2345 20.2712 36.2718 23.7984 31.997 23.7984C30.3464 23.7984 28.611 23.2034 27.5106 21.9285V29.8754L22.4316 32.0002V8.79705H27.5529V10.4544ZM27.3836 16.064C27.3836 17.8913 28.611 19.2937 30.685 19.2937C32.7589 19.2937 33.9863 17.8913 33.9863 16.064C33.9863 14.2791 32.7589 12.7917 30.685 12.7917C28.5687 12.7917 27.3836 14.2791 27.3836 16.064Z" fill="white"/>
<path d="M47.0646 8.79688H41.9434V23.2882H47.0646V8.79688Z" fill="white"/>
<path d="M66.9996 16.064C66.9996 20.9936 62.9364 23.7559 58.323 23.7559C53.7097 23.7559 49.6465 20.9936 49.6465 16.064C49.6465 11.1344 53.7097 8.32959 58.323 8.32959C62.9788 8.32959 66.9996 11.1344 66.9996 16.064ZM55.064 16.064C55.064 17.8913 56.2915 19.2937 58.3654 19.2937C60.4393 19.2937 61.6667 17.8913 61.6667 16.064C61.6667 14.2791 60.4393 12.7917 58.3654 12.7917C56.2491 12.7917 55.064 14.2791 55.064 16.064Z" fill="white"/>
<path d="M18.5803 4.80212L13.5859 6.79947V2.03984L18.5803 0V4.80212Z" fill="white"/>
<path d="M47.0236 4.80212L42.0293 6.79947V2.03984L47.0236 0V4.80212Z" fill="white"/>
</g>
<defs>
<clipPath id="clip0">
<rect width="67" height="32" fill="white"/>
</clipPath>
</defs>
</svg>
