<svg width="35" height="34" viewBox="0 0 35 34" fill="none" xmlns="http://www.w3.org/2000/svg">
<path d="M23.816 13.9919C23.8252 14.1212 23.8252 14.2551 23.8252 14.3844C23.8252 18.3875 20.7999 23 15.272 23C13.5669 23 11.9855 22.5013 10.6562 21.6426C10.8992 21.6703 11.133 21.6795 11.3805 21.6795C12.7877 21.6795 14.0803 21.1993 15.1116 20.3867C13.7915 20.359 12.6822 19.4863 12.3018 18.2859C12.7647 18.3551 13.1819 18.3551 13.6586 18.2305C12.2835 17.9488 11.2521 16.7299 11.2521 15.257V15.2201C11.6509 15.4463 12.1184 15.5848 12.6089 15.6033C11.7714 15.0422 11.2688 14.0955 11.2705 13.0823C11.2705 12.519 11.4171 12.0019 11.6784 11.5541C13.1589 13.3917 15.382 14.5922 17.8756 14.7214C17.4493 12.6668 18.9756 11 20.8091 11C21.6754 11 22.4547 11.3648 23.0047 11.9558C23.6831 11.8265 24.334 11.5725 24.9115 11.2262C24.6869 11.928 24.2148 12.519 23.5914 12.893C24.1965 12.8284 24.7832 12.6576 25.324 12.4221C24.9161 13.0269 24.4027 13.5625 23.816 13.9919Z" fill="white"/>
<path d="M33.9701 17C33.9701 26.1165 26.6403 33.5 17.6071 33.5C8.5739 33.5 1.24414 26.1165 1.24414 17C1.24414 7.88348 8.5739 0.5 17.6071 0.5C26.6403 0.5 33.9701 7.88348 33.9701 17Z" stroke="white"/>
</svg>
