<svg width="35" height="34" viewBox="0 0 35 34" fill="none" xmlns="http://www.w3.org/2000/svg">
<path d="M33.9701 17C33.9701 26.1165 26.6403 33.5 17.6071 33.5C8.5739 33.5 1.24414 26.1165 1.24414 17C1.24414 7.88348 8.5739 0.5 17.6071 0.5C26.6403 0.5 33.9701 7.88348 33.9701 17Z" stroke="white"/>
<path d="M24.6361 12.0304C24.2142 11.28 23.7564 11.1419 22.8242 11.0894C21.8929 11.0262 19.5512 11 17.5225 11C15.49 11 13.1473 11.0262 12.2171 11.0885C11.2868 11.1419 10.828 11.279 10.4022 12.0304C9.96771 12.7798 9.74414 14.0707 9.74414 16.3434C9.74414 16.3453 9.74414 16.3463 9.74414 16.3463C9.74414 16.3483 9.74414 16.3492 9.74414 16.3492V16.3512C9.74414 18.6141 9.96771 19.9147 10.4022 20.6564C10.828 21.4069 11.2858 21.5429 12.2161 21.6061C13.1473 21.6606 15.49 21.6926 17.5225 21.6926C19.5512 21.6926 21.8929 21.6606 22.8251 21.6071C23.7573 21.5439 24.2152 21.4078 24.637 20.6574C25.0754 19.9157 25.2971 18.6151 25.2971 16.3521C25.2971 16.3521 25.2971 16.3492 25.2971 16.3473C25.2971 16.3473 25.2971 16.3453 25.2971 16.3444C25.2971 14.0707 25.0754 12.7798 24.6361 12.0304ZM15.5765 19.2625V13.4301L20.4368 16.3463L15.5765 19.2625Z" fill="white"/>
</svg>
